# MagicaVoxel @ Ephtracy

# group
o 

# material
mtllib floor01.mtl
usemtl palette

# normals
vn -1 0 0
vn 1 0 0
vn 0 0 1
vn 0 0 -1
vn 0 -1 0
vn 0 1 0

# texcoords
vt 0.951172 0.5
vt 0.978516 0.5
vt 0.986328 0.5

# verts
v -3 0 3
v -3 0 -3
v -3 0.7 -1
v -3 0.7 -1.5
v -3 0.8 3
v -3 0.8 1.6
v -3 0.8 1.2
v -3 0.8 -1
v -3 0.8 -1.5
v -3 0.8 -3
v -3 0.9 1.6
v -3 0.9 1.2
v -2.5 0.8 -2
v -2.5 0.8 -2.2
v -2.5 0.9 -2
v -2.5 0.9 -2.2
v -2 0.8 1.1
v -2 0.8 0.4
v -2 0.9 1.1
v -2 0.9 0.4
v -1.9 0.8 -0.3
v -1.9 0.8 -0.7
v -1.9 0.9 -0.3
v -1.9 0.9 -0.7
v -1.5 0.8 2.3
v -1.5 0.8 1.7
v -1.5 0.9 2.3
v -1.5 0.9 1.7
v -1.1 0.8 -0.7
v -1.1 0.8 -0.9
v -1.1 0.9 -0.7
v -1.1 0.9 -0.9
v -1 0.8 0.6
v -1 0.8 0.3
v -1 0.9 0.6
v -1 0.9 0.3
v -0.9 0.8 -1.4
v -0.9 0.8 -2.2
v -0.9 0.9 -1.4
v -0.9 0.9 -2.2
v -0.4 0.8 2.4
v -0.4 0.8 1.9
v -0.4 0.9 2.4
v -0.4 0.9 1.9
v 0.1 0.8 -2.38419e-007
v 0.1 0.8 -0.5
v 0.1 0.9 -2.38419e-007
v 0.1 0.9 -0.5
v 0.3 0.8 1.2
v 0.3 0.8 1
v 0.3 0.8 -1.2
v 0.3 0.8 -1.5
v 0.3 0.9 1.2
v 0.3 0.9 1
v 0.3 0.9 -1.2
v 0.3 0.9 -1.5
v 0.4 0.8 2.4
v 0.4 0.8 1.8
v 0.4 0.9 2.4
v 0.4 0.9 1.8
v 0.7 0.8 -2.1
v 0.7 0.8 -3
v 0.7 0.9 -2.1
v 0.7 0.9 -3
v 1.3 0.8 2.4
v 1.3 0.8 1.9
v 1.3 0.9 2.4
v 1.3 0.9 1.9
v 1.5 0.8 -1.1
v 1.5 0.8 -1.4
v 1.5 0.9 -1.1
v 1.5 0.9 -1.4
v 1.7 0.8 0.8
v 1.7 0.8 0.2
v 1.7 0.9 0.8
v 1.7 0.9 0.2
v 2.3 0.8 -1.8
v 2.3 0.8 -2.3
v 2.3 0.9 -1.8
v 2.3 0.9 -2.3
v -2.8 0.8 1.6
v -2.8 0.8 1.2
v -2.8 0.9 1.6
v -2.8 0.9 1.2
v -2.1 0.8 -2
v -2.1 0.8 -2.2
v -2.1 0.9 -2
v -2.1 0.9 -2.2
v -1.8 0.8 1.1
v -1.8 0.8 0.4
v -1.8 0.9 1.1
v -1.8 0.9 0.4
v -1.7 0.8 -0.3
v -1.7 0.8 -0.7
v -1.7 0.9 -0.3
v -1.7 0.9 -0.7
v -1 0.8 2.3
v -1 0.8 1.7
v -1 0.9 2.3
v -1 0.9 1.7
v -0.6 0.8 -0.7
v -0.6 0.8 -0.9
v -0.6 0.9 -0.7
v -0.6 0.9 -0.9
v -0.5 0.8 0.6
v -0.5 0.8 0.3
v -0.5 0.8 -1.4
v -0.5 0.8 -2.2
v -0.5 0.9 0.6
v -0.5 0.9 0.3
v -0.5 0.9 -1.4
v -0.5 0.9 -2.2
v -0.2 0.8 2.4
v -0.2 0.8 1.9
v -0.2 0.9 2.4
v -0.2 0.9 1.9
v 0.4 0.8 -2.38419e-007
v 0.4 0.8 -0.5
v 0.4 0.9 -2.38419e-007
v 0.4 0.9 -0.5
v 0.7 0.8 1.2
v 0.7 0.8 1
v 0.7 0.9 1.2
v 0.7 0.9 1
v 0.8 0.8 2.4
v 0.8 0.8 1.8
v 0.8 0.8 -1.2
v 0.8 0.8 -1.5
v 0.8 0.9 2.4
v 0.8 0.9 1.8
v 0.8 0.9 -1.2
v 0.8 0.9 -1.5
v 1.1 0.8 -2.1
v 1.1 0.8 -3
v 1.1 0.9 -2.1
v 1.1 0.9 -3
v 1.5 0.8 2.4
v 1.5 0.8 1.9
v 1.5 0.9 2.4
v 1.5 0.9 1.9
v 1.8 0.8 -1.1
v 1.8 0.8 -1.4
v 1.8 0.9 -1.1
v 1.8 0.9 -1.4
v 2 0.8 0.8
v 2 0.8 0.2
v 2 0.9 0.8
v 2 0.9 0.2
v 2.6 0.8 -1.8
v 2.6 0.8 -2.3
v 2.6 0.9 -1.8
v 2.6 0.9 -2.3
v 3 0 3
v 3 0 -3
v 3 0.8 3
v 3 0.8 -3
v -3 0 3
v -3 0.8 3
v 3 0 3
v 3 0.8 3
v -0.4 0.8 2.4
v -0.4 0.9 2.4
v -0.2 0.8 2.4
v -0.2 0.9 2.4
v 0.4 0.8 2.4
v 0.4 0.9 2.4
v 0.8 0.8 2.4
v 0.8 0.9 2.4
v 1.3 0.8 2.4
v 1.3 0.9 2.4
v 1.5 0.8 2.4
v 1.5 0.9 2.4
v -1.5 0.8 2.3
v -1.5 0.9 2.3
v -1 0.8 2.3
v -1 0.9 2.3
v -3 0.8 1.6
v -3 0.9 1.6
v -2.8 0.8 1.6
v -2.8 0.9 1.6
v 0.3 0.8 1.2
v 0.3 0.9 1.2
v 0.7 0.8 1.2
v 0.7 0.9 1.2
v -2 0.8 1.1
v -2 0.9 1.1
v -1.8 0.8 1.1
v -1.8 0.9 1.1
v 1.7 0.8 0.8
v 1.7 0.9 0.8
v 2 0.8 0.8
v 2 0.9 0.8
v -1 0.8 0.6
v -1 0.9 0.6
v -0.5 0.8 0.6
v -0.5 0.9 0.6
v 0.1 0.8 -2.38419e-007
v 0.1 0.9 -2.38419e-007
v 0.4 0.8 -2.38419e-007
v 0.4 0.9 -2.38419e-007
v -1.9 0.8 -0.3
v -1.9 0.9 -0.3
v -1.7 0.8 -0.3
v -1.7 0.9 -0.3
v -1.1 0.8 -0.7
v -1.1 0.9 -0.7
v -0.6 0.8 -0.7
v -0.6 0.9 -0.7
v 1.5 0.8 -1.1
v 1.5 0.9 -1.1
v 1.8 0.8 -1.1
v 1.8 0.9 -1.1
v 0.3 0.8 -1.2
v 0.3 0.9 -1.2
v 0.8 0.8 -1.2
v 0.8 0.9 -1.2
v -0.9 0.8 -1.4
v -0.9 0.9 -1.4
v -0.5 0.8 -1.4
v -0.5 0.9 -1.4
v 2.3 0.8 -1.8
v 2.3 0.9 -1.8
v 2.6 0.8 -1.8
v 2.6 0.9 -1.8
v -2.5 0.8 -2
v -2.5 0.9 -2
v -2.1 0.8 -2
v -2.1 0.9 -2
v 0.7 0.8 -2.1
v 0.7 0.9 -2.1
v 1.1 0.8 -2.1
v 1.1 0.9 -2.1
v -0.4 0.8 1.9
v -0.4 0.9 1.9
v -0.2 0.8 1.9
v -0.2 0.9 1.9
v 1.3 0.8 1.9
v 1.3 0.9 1.9
v 1.5 0.8 1.9
v 1.5 0.9 1.9
v 0.4 0.8 1.8
v 0.4 0.9 1.8
v 0.8 0.8 1.8
v 0.8 0.9 1.8
v -1.5 0.8 1.7
v -1.5 0.9 1.7
v -1 0.8 1.7
v -1 0.9 1.7
v -3 0.8 1.2
v -3 0.9 1.2
v -2.8 0.8 1.2
v -2.8 0.9 1.2
v 0.3 0.8 1
v 0.3 0.9 1
v 0.7 0.8 1
v 0.7 0.9 1
v -2 0.8 0.4
v -2 0.9 0.4
v -1.8 0.8 0.4
v -1.8 0.9 0.4
v -1 0.8 0.3
v -1 0.9 0.3
v -0.5 0.8 0.3
v -0.5 0.9 0.3
v 1.7 0.8 0.2
v 1.7 0.9 0.2
v 2 0.8 0.2
v 2 0.9 0.2
v 0.1 0.8 -0.5
v 0.1 0.9 -0.5
v 0.4 0.8 -0.5
v 0.4 0.9 -0.5
v -1.9 0.8 -0.7
v -1.9 0.9 -0.7
v -1.7 0.8 -0.7
v -1.7 0.9 -0.7
v -1.1 0.8 -0.9
v -1.1 0.9 -0.9
v -0.6 0.8 -0.9
v -0.6 0.9 -0.9
v 1.5 0.8 -1.4
v 1.5 0.9 -1.4
v 1.8 0.8 -1.4
v 1.8 0.9 -1.4
v 0.3 0.8 -1.5
v 0.3 0.9 -1.5
v 0.8 0.8 -1.5
v 0.8 0.9 -1.5
v -2.5 0.8 -2.2
v -2.5 0.9 -2.2
v -2.1 0.8 -2.2
v -2.1 0.9 -2.2
v -0.9 0.8 -2.2
v -0.9 0.9 -2.2
v -0.5 0.8 -2.2
v -0.5 0.9 -2.2
v 2.3 0.8 -2.3
v 2.3 0.9 -2.3
v 2.6 0.8 -2.3
v 2.6 0.9 -2.3
v -3 0 -3
v -3 0.8 -3
v -1.8 0.7 -3
v -1.8 0.8 -3
v -1.5 0.7 -3
v -1.5 0.8 -3
v 0.7 0.8 -3
v 0.7 0.9 -3
v 1.1 0.8 -3
v 1.1 0.9 -3
v 3 0 -3
v 3 0.8 -3
v -3 0 3
v 3 0 3
v -3 0 -3
v 3 0 -3
v -3 0.8 3
v 3 0.8 3
v -2.7 0.8 2.9
v -2.6 0.8 2.9
v 2 0.8 2.9
v 2.1 0.8 2.9
v -2.7 0.8 2.8
v -2.6 0.8 2.8
v 2 0.8 2.8
v 2.1 0.8 2.8
v 2.4 0.8 2.5
v 2.5 0.8 2.5
v -2.1 0.8 2.4
v -2 0.8 2.4
v -0.4 0.8 2.4
v -0.2 0.8 2.4
v 0.4 0.8 2.4
v 0.8 0.8 2.4
v 1.3 0.8 2.4
v 1.5 0.8 2.4
v -2.1 0.8 2.3
v -2 0.8 2.3
v -1.5 0.8 2.3
v -1 0.8 2.3
v 2.4 0.8 2.2
v 2.5 0.8 2.2
v -0.4 0.8 1.9
v -0.2 0.8 1.9
v 1.3 0.8 1.9
v 1.5 0.8 1.9
v 2.3 0.8 1.9
v 2.4 0.8 1.9
v 0.4 0.8 1.8
v 0.8 0.8 1.8
v 2.3 0.8 1.8
v 2.4 0.8 1.8
v -2.3 0.8 1.7
v -2 0.8 1.7
v -1.5 0.8 1.7
v -1 0.8 1.7
v -3 0.8 1.6
v -2.8 0.8 1.6
v -2.3 0.8 1.5
v -2 0.8 1.5
v -0.8 0.8 1.3
v -0.5 0.8 1.3
v 1.8 0.8 1.3
v 1.9 0.8 1.3
v -3 0.8 1.2
v -2.8 0.8 1.2
v 0.3 0.8 1.2
v 0.7 0.8 1.2
v 1.8 0.8 1.2
v 1.9 0.8 1.2
v -2 0.8 1.1
v -1.8 0.8 1.1
v -0.8 0.8 1.1
v -0.5 0.8 1.1
v 0.3 0.8 1
v 0.7 0.8 1
v 1.1 0.8 1
v 1.2 0.8 1
v 1.1 0.8 0.9
v 1.2 0.8 0.9
v 2.5 0.8 0.9
v 2.8 0.8 0.9
v 1.7 0.8 0.8
v 2 0.8 0.8
v 2.5 0.8 0.7
v 2.8 0.8 0.7
v -2.7 0.8 0.6
v -2.6 0.8 0.6
v -1 0.8 0.6
v -0.5 0.8 0.6
v -2 0.8 0.4
v -1.8 0.8 0.4
v -2.7 0.8 0.3
v -2.6 0.8 0.3
v -1 0.8 0.3
v -0.5 0.8 0.3
v 1 0.8 0.3
v 1.2 0.8 0.3
v 1.7 0.8 0.2
v 2 0.8 0.2
v 0.1 0.8 -2.38419e-007
v 0.4 0.8 -2.38419e-007
v -0.5 0.8 -0.2
v -0.4 0.8 -0.2
v 1 0.8 -0.2
v 1.2 0.8 -0.2
v -1.9 0.8 -0.3
v -1.7 0.8 -0.3
v -0.5 0.8 -0.3
v -0.4 0.8 -0.3
v 2.4 0.8 -0.4
v 2.7 0.8 -0.4
v -2.7 0.8 -0.5
v -2.6 0.8 -0.5
v 0.1 0.8 -0.5
v 0.4 0.8 -0.5
v -2.7 0.8 -0.6
v -2.6 0.8 -0.6
v -1.9 0.8 -0.7
v -1.7 0.8 -0.7
v -1.1 0.8 -0.7
v -0.6 0.8 -0.7
v 1.9 0.8 -0.7
v 2 0.8 -0.7
v 1.9 0.8 -0.8
v 2 0.8 -0.8
v -1.1 0.8 -0.9
v -0.6 0.8 -0.9
v 2.4 0.8 -0.9
v 2.7 0.8 -0.9
v -3 0.8 -1
v -2.8 0.8 -1
v 1.5 0.8 -1.1
v 1.8 0.8 -1.1
v -0.4 0.8 -1.2
v -0.3 0.8 -1.2
v 0.3 0.8 -1.2
v 0.8 0.8 -1.2
v -1.8 0.8 -1.3
v -1.7 0.8 -1.3
v -0.4 0.8 -1.3
v -0.3 0.8 -1.3
v -1.8 0.8 -1.4
v -1.7 0.8 -1.4
v -0.9 0.8 -1.4
v -0.5 0.8 -1.4
v 1.5 0.8 -1.4
v 1.8 0.8 -1.4
v -3 0.8 -1.5
v -2.8 0.8 -1.5
v 0.3 0.8 -1.5
v 0.8 0.8 -1.5
v -1.8 0.8 -1.8
v -1.5 0.8 -1.8
v 2.3 0.8 -1.8
v 2.6 0.8 -1.8
v -2.5 0.8 -2
v -2.1 0.8 -2
v -1.8 0.8 -2
v -1.5 0.8 -2
v 0.1 0.8 -2.1
v 0.2 0.8 -2.1
v 0.7 0.8 -2.1
v 1.1 0.8 -2.1
v -2.5 0.8 -2.2
v -2.1 0.8 -2.2
v -0.9 0.8 -2.2
v -0.5 0.8 -2.2
v 0.1 0.8 -2.2
v 0.2 0.8 -2.2
v 2.3 0.8 -2.3
v 2.6 0.8 -2.3
v 1.7 0.8 -2.4
v 1.9 0.8 -2.4
v -1.8 0.8 -2.6
v -1.5 0.8 -2.6
v -0.3 0.8 -2.6
v 0.1 0.8 -2.6
v -0.3 0.8 -2.8
v 0.1 0.8 -2.8
v 1.7 0.8 -2.9
v 1.9 0.8 -2.9
v -3 0.8 -3
v -1.8 0.8 -3
v -1.5 0.8 -3
v 0.7 0.8 -3
v 1.1 0.8 -3
v 3 0.8 -3
v -0.4 0.9 2.4
v -0.2 0.9 2.4
v 0.4 0.9 2.4
v 0.8 0.9 2.4
v 1.3 0.9 2.4
v 1.5 0.9 2.4
v -1.5 0.9 2.3
v -1 0.9 2.3
v -0.4 0.9 1.9
v -0.2 0.9 1.9
v 1.3 0.9 1.9
v 1.5 0.9 1.9
v 0.4 0.9 1.8
v 0.8 0.9 1.8
v -1.5 0.9 1.7
v -1 0.9 1.7
v -3 0.9 1.6
v -2.8 0.9 1.6
v -3 0.9 1.2
v -2.8 0.9 1.2
v 0.3 0.9 1.2
v 0.7 0.9 1.2
v -2 0.9 1.1
v -1.8 0.9 1.1
v 0.3 0.9 1
v 0.7 0.9 1
v 1.7 0.9 0.8
v 2 0.9 0.8
v -1 0.9 0.6
v -0.5 0.9 0.6
v -2 0.9 0.4
v -1.8 0.9 0.4
v -1 0.9 0.3
v -0.5 0.9 0.3
v 1.7 0.9 0.2
v 2 0.9 0.2
v 0.1 0.9 -2.38419e-007
v 0.4 0.9 -2.38419e-007
v -1.9 0.9 -0.3
v -1.7 0.9 -0.3
v 0.1 0.9 -0.5
v 0.4 0.9 -0.5
v -1.9 0.9 -0.7
v -1.7 0.9 -0.7
v -1.1 0.9 -0.7
v -0.6 0.9 -0.7
v -1.1 0.9 -0.9
v -0.6 0.9 -0.9
v 1.5 0.9 -1.1
v 1.8 0.9 -1.1
v 0.3 0.9 -1.2
v 0.8 0.9 -1.2
v -0.9 0.9 -1.4
v -0.5 0.9 -1.4
v 1.5 0.9 -1.4
v 1.8 0.9 -1.4
v 0.3 0.9 -1.5
v 0.8 0.9 -1.5
v 2.3 0.9 -1.8
v 2.6 0.9 -1.8
v -2.5 0.9 -2
v -2.1 0.9 -2
v 0.7 0.9 -2.1
v 1.1 0.9 -2.1
v -2.5 0.9 -2.2
v -2.1 0.9 -2.2
v -0.9 0.9 -2.2
v -0.5 0.9 -2.2
v 2.3 0.9 -2.3
v 2.6 0.9 -2.3
v 0.7 0.9 -3
v 1.1 0.9 -3

# faces
f 3/3/1 2/3/1 1/3/1
f 4/3/1 2/3/1 3/3/1
f 5/3/1 3/3/1 1/3/1
f 6/3/1 3/3/1 5/3/1
f 7/3/1 3/3/1 6/3/1
f 8/2/1 4/2/1 3/2/1
f 8/3/1 3/3/1 7/3/1
f 9/3/1 2/3/1 4/3/1
f 9/2/1 4/2/1 8/2/1
f 10/3/1 2/3/1 9/3/1
f 11/2/1 7/2/1 6/2/1
f 12/2/1 7/2/1 11/2/1
f 15/1/1 14/1/1 13/1/1
f 16/1/1 14/1/1 15/1/1
f 19/1/1 18/1/1 17/1/1
f 20/1/1 18/1/1 19/1/1
f 23/2/1 22/2/1 21/2/1
f 24/2/1 22/2/1 23/2/1
f 27/2/1 26/2/1 25/2/1
f 28/2/1 26/2/1 27/2/1
f 31/1/1 30/1/1 29/1/1
f 32/1/1 30/1/1 31/1/1
f 35/2/1 34/2/1 33/2/1
f 36/2/1 34/2/1 35/2/1
f 39/2/1 38/2/1 37/2/1
f 40/2/1 38/2/1 39/2/1
f 43/1/1 42/1/1 41/1/1
f 44/1/1 42/1/1 43/1/1
f 47/2/1 46/2/1 45/2/1
f 48/2/1 46/2/1 47/2/1
f 53/2/1 50/2/1 49/2/1
f 54/2/1 50/2/1 53/2/1
f 55/1/1 52/1/1 51/1/1
f 56/1/1 52/1/1 55/1/1
f 59/2/1 58/2/1 57/2/1
f 60/2/1 58/2/1 59/2/1
f 63/2/1 62/2/1 61/2/1
f 64/2/1 62/2/1 63/2/1
f 67/1/1 66/1/1 65/1/1
f 68/1/1 66/1/1 67/1/1
f 71/2/1 70/2/1 69/2/1
f 72/2/1 70/2/1 71/2/1
f 75/2/1 74/2/1 73/2/1
f 76/2/1 74/2/1 75/2/1
f 79/1/1 78/1/1 77/1/1
f 80/1/1 78/1/1 79/1/1
f 81/2/2 82/2/2 83/2/2
f 83/2/2 82/2/2 84/2/2
f 85/1/2 86/1/2 87/1/2
f 87/1/2 86/1/2 88/1/2
f 89/1/2 90/1/2 91/1/2
f 91/1/2 90/1/2 92/1/2
f 93/2/2 94/2/2 95/2/2
f 95/2/2 94/2/2 96/2/2
f 97/2/2 98/2/2 99/2/2
f 99/2/2 98/2/2 100/2/2
f 101/1/2 102/1/2 103/1/2
f 103/1/2 102/1/2 104/1/2
f 105/2/2 106/2/2 109/2/2
f 109/2/2 106/2/2 110/2/2
f 107/2/2 108/2/2 111/2/2
f 111/2/2 108/2/2 112/2/2
f 113/1/2 114/1/2 115/1/2
f 115/1/2 114/1/2 116/1/2
f 117/2/2 118/2/2 119/2/2
f 119/2/2 118/2/2 120/2/2
f 121/2/2 122/2/2 123/2/2
f 123/2/2 122/2/2 124/2/2
f 125/2/2 126/2/2 129/2/2
f 129/2/2 126/2/2 130/2/2
f 127/1/2 128/1/2 131/1/2
f 131/1/2 128/1/2 132/1/2
f 133/2/2 134/2/2 135/2/2
f 135/2/2 134/2/2 136/2/2
f 137/1/2 138/1/2 139/1/2
f 139/1/2 138/1/2 140/1/2
f 141/2/2 142/2/2 143/2/2
f 143/2/2 142/2/2 144/2/2
f 145/2/2 146/2/2 147/2/2
f 147/2/2 146/2/2 148/2/2
f 149/1/2 150/1/2 151/1/2
f 151/1/2 150/1/2 152/1/2
f 153/3/2 154/3/2 155/3/2
f 155/3/2 154/3/2 156/3/2
f 159/3/3 158/3/3 157/3/3
f 160/3/3 158/3/3 159/3/3
f 163/1/3 162/1/3 161/1/3
f 164/1/3 162/1/3 163/1/3
f 167/2/3 166/2/3 165/2/3
f 168/2/3 166/2/3 167/2/3
f 171/1/3 170/1/3 169/1/3
f 172/1/3 170/1/3 171/1/3
f 175/2/3 174/2/3 173/2/3
f 176/2/3 174/2/3 175/2/3
f 179/2/3 178/2/3 177/2/3
f 180/2/3 178/2/3 179/2/3
f 183/2/3 182/2/3 181/2/3
f 184/2/3 182/2/3 183/2/3
f 187/1/3 186/1/3 185/1/3
f 188/1/3 186/1/3 187/1/3
f 191/2/3 190/2/3 189/2/3
f 192/2/3 190/2/3 191/2/3
f 195/2/3 194/2/3 193/2/3
f 196/2/3 194/2/3 195/2/3
f 199/2/3 198/2/3 197/2/3
f 200/2/3 198/2/3 199/2/3
f 203/2/3 202/2/3 201/2/3
f 204/2/3 202/2/3 203/2/3
f 207/1/3 206/1/3 205/1/3
f 208/1/3 206/1/3 207/1/3
f 211/2/3 210/2/3 209/2/3
f 212/2/3 210/2/3 211/2/3
f 215/1/3 214/1/3 213/1/3
f 216/1/3 214/1/3 215/1/3
f 219/2/3 218/2/3 217/2/3
f 220/2/3 218/2/3 219/2/3
f 223/1/3 222/1/3 221/1/3
f 224/1/3 222/1/3 223/1/3
f 227/1/3 226/1/3 225/1/3
f 228/1/3 226/1/3 227/1/3
f 231/2/3 230/2/3 229/2/3
f 232/2/3 230/2/3 231/2/3
f 233/1/4 234/1/4 235/1/4
f 235/1/4 234/1/4 236/1/4
f 237/1/4 238/1/4 239/1/4
f 239/1/4 238/1/4 240/1/4
f 241/2/4 242/2/4 243/2/4
f 243/2/4 242/2/4 244/2/4
f 245/2/4 246/2/4 247/2/4
f 247/2/4 246/2/4 248/2/4
f 249/2/4 250/2/4 251/2/4
f 251/2/4 250/2/4 252/2/4
f 253/2/4 254/2/4 255/2/4
f 255/2/4 254/2/4 256/2/4
f 257/1/4 258/1/4 259/1/4
f 259/1/4 258/1/4 260/1/4
f 261/2/4 262/2/4 263/2/4
f 263/2/4 262/2/4 264/2/4
f 265/2/4 266/2/4 267/2/4
f 267/2/4 266/2/4 268/2/4
f 269/2/4 270/2/4 271/2/4
f 271/2/4 270/2/4 272/2/4
f 273/2/4 274/2/4 275/2/4
f 275/2/4 274/2/4 276/2/4
f 277/1/4 278/1/4 279/1/4
f 279/1/4 278/1/4 280/1/4
f 281/2/4 282/2/4 283/2/4
f 283/2/4 282/2/4 284/2/4
f 285/1/4 286/1/4 287/1/4
f 287/1/4 286/1/4 288/1/4
f 289/1/4 290/1/4 291/1/4
f 291/1/4 290/1/4 292/1/4
f 293/2/4 294/2/4 295/2/4
f 295/2/4 294/2/4 296/2/4
f 297/1/4 298/1/4 299/1/4
f 299/1/4 298/1/4 300/1/4
f 301/3/4 302/3/4 303/3/4
f 303/3/4 302/3/4 304/3/4
f 301/3/4 303/3/4 305/3/4
f 303/1/4 304/1/4 305/1/4
f 305/1/4 304/1/4 306/1/4
f 305/3/4 306/3/4 307/3/4
f 305/3/4 307/3/4 309/3/4
f 307/2/4 308/2/4 309/2/4
f 309/2/4 308/2/4 310/2/4
f 301/3/4 305/3/4 311/3/4
f 305/3/4 309/3/4 311/3/4
f 311/3/4 309/3/4 312/3/4
f 315/3/5 314/3/5 313/3/5
f 316/3/5 314/3/5 315/3/5
f 317/3/6 318/3/6 319/3/6
f 319/3/6 318/3/6 320/3/6
f 320/3/6 318/3/6 321/3/6
f 321/3/6 318/3/6 322/3/6
f 317/3/6 319/3/6 323/3/6
f 319/2/6 320/2/6 323/2/6
f 320/3/6 321/3/6 324/3/6
f 323/2/6 320/2/6 324/2/6
f 321/2/6 322/2/6 325/2/6
f 324/3/6 321/3/6 325/3/6
f 322/3/6 318/3/6 326/3/6
f 325/2/6 322/2/6 326/2/6
f 324/3/6 325/3/6 327/3/6
f 326/3/6 318/3/6 327/3/6
f 325/3/6 326/3/6 327/3/6
f 323/3/6 324/3/6 327/3/6
f 327/3/6 318/3/6 328/3/6
f 323/3/6 327/3/6 329/3/6
f 329/3/6 327/3/6 330/3/6
f 330/3/6 327/3/6 331/3/6
f 331/3/6 327/3/6 332/3/6
f 332/3/6 327/3/6 333/3/6
f 333/3/6 327/3/6 334/3/6
f 334/3/6 327/3/6 335/3/6
f 335/3/6 327/3/6 336/3/6
f 323/3/6 329/3/6 337/3/6
f 329/1/6 330/1/6 337/1/6
f 330/3/6 331/3/6 338/3/6
f 337/1/6 330/1/6 338/1/6
f 338/3/6 331/3/6 339/3/6
f 339/3/6 331/3/6 340/3/6
f 327/1/6 328/1/6 341/1/6
f 336/3/6 327/3/6 341/3/6
f 328/3/6 318/3/6 342/3/6
f 341/1/6 328/1/6 342/1/6
f 340/3/6 331/3/6 343/3/6
f 332/3/6 333/3/6 344/3/6
f 334/3/6 335/3/6 345/3/6
f 336/3/6 341/3/6 346/3/6
f 341/3/6 342/3/6 346/3/6
f 346/3/6 342/3/6 347/3/6
f 347/3/6 342/3/6 348/3/6
f 343/3/6 344/3/6 349/3/6
f 344/3/6 333/3/6 349/3/6
f 334/3/6 345/3/6 350/3/6
f 345/3/6 346/3/6 350/3/6
f 346/3/6 347/3/6 350/3/6
f 347/2/6 348/2/6 351/2/6
f 350/3/6 347/3/6 351/3/6
f 348/3/6 342/3/6 352/3/6
f 351/2/6 348/2/6 352/2/6
f 338/3/6 339/3/6 353/3/6
f 323/3/6 337/3/6 353/3/6
f 337/3/6 338/3/6 353/3/6
f 353/3/6 339/3/6 354/3/6
f 354/3/6 339/3/6 355/3/6
f 343/3/6 349/3/6 356/3/6
f 350/3/6 351/3/6 356/3/6
f 351/3/6 352/3/6 356/3/6
f 340/3/6 343/3/6 356/3/6
f 349/3/6 350/3/6 356/3/6
f 317/3/6 323/3/6 357/3/6
f 323/3/6 353/3/6 357/3/6
f 357/3/6 353/3/6 358/3/6
f 353/2/6 354/2/6 359/2/6
f 358/3/6 353/3/6 359/3/6
f 355/3/6 356/3/6 360/3/6
f 359/2/6 354/2/6 360/2/6
f 354/3/6 355/3/6 360/3/6
f 356/3/6 352/3/6 361/3/6
f 360/3/6 356/3/6 361/3/6
f 359/3/6 360/3/6 361/3/6
f 361/3/6 352/3/6 362/3/6
f 362/3/6 352/3/6 363/3/6
f 363/3/6 352/3/6 364/3/6
f 358/3/6 359/3/6 366/3/6
f 359/3/6 361/3/6 366/3/6
f 362/3/6 363/3/6 367/3/6
f 367/3/6 363/3/6 368/3/6
f 363/1/6 364/1/6 369/1/6
f 368/3/6 363/3/6 369/3/6
f 364/3/6 352/3/6 370/3/6
f 369/1/6 364/1/6 370/1/6
f 365/3/6 366/3/6 371/3/6
f 366/3/6 361/3/6 371/3/6
f 371/3/6 361/3/6 372/3/6
f 361/1/6 362/1/6 373/1/6
f 372/3/6 361/3/6 373/3/6
f 362/3/6 367/3/6 374/3/6
f 373/1/6 362/1/6 374/1/6
f 374/3/6 367/3/6 375/3/6
f 373/3/6 374/3/6 375/3/6
f 372/3/6 373/3/6 375/3/6
f 368/3/6 369/3/6 376/3/6
f 369/3/6 370/3/6 376/3/6
f 376/3/6 370/3/6 377/3/6
f 377/3/6 370/3/6 378/3/6
f 375/3/6 376/3/6 379/3/6
f 376/3/6 377/3/6 379/3/6
f 377/2/6 378/2/6 379/2/6
f 378/3/6 370/3/6 380/3/6
f 379/2/6 378/2/6 380/2/6
f 342/3/6 318/3/6 381/3/6
f 380/3/6 370/3/6 381/3/6
f 352/3/6 342/3/6 381/3/6
f 370/3/6 352/3/6 381/3/6
f 381/3/6 318/3/6 382/3/6
f 379/3/6 380/3/6 383/3/6
f 380/3/6 381/3/6 383/3/6
f 383/3/6 381/3/6 384/3/6
f 381/2/6 382/2/6 385/2/6
f 384/3/6 381/3/6 385/3/6
f 382/3/6 318/3/6 386/3/6
f 385/2/6 382/2/6 386/2/6
f 365/3/6 371/3/6 387/3/6
f 387/3/6 371/3/6 388/3/6
f 372/3/6 375/3/6 389/3/6
f 375/3/6 379/3/6 389/3/6
f 379/3/6 383/3/6 389/3/6
f 389/3/6 383/3/6 390/3/6
f 388/3/6 371/3/6 391/3/6
f 372/3/6 389/3/6 392/3/6
f 387/1/6 388/1/6 393/1/6
f 365/3/6 387/3/6 393/3/6
f 391/3/6 392/3/6 394/3/6
f 393/1/6 388/1/6 394/1/6
f 388/3/6 391/3/6 394/3/6
f 392/3/6 389/3/6 395/3/6
f 394/3/6 392/3/6 395/3/6
f 390/3/6 383/3/6 396/3/6
f 396/3/6 383/3/6 397/3/6
f 397/3/6 383/3/6 398/3/6
f 398/3/6 383/3/6 399/3/6
f 384/3/6 385/3/6 400/3/6
f 385/3/6 386/3/6 400/3/6
f 394/3/6 395/3/6 401/3/6
f 393/3/6 394/3/6 401/3/6
f 395/3/6 396/3/6 401/3/6
f 396/3/6 397/3/6 401/3/6
f 401/3/6 397/3/6 402/3/6
f 393/3/6 401/3/6 403/3/6
f 403/3/6 401/3/6 404/3/6
f 397/1/6 398/1/6 405/1/6
f 402/3/6 397/3/6 405/3/6
f 399/3/6 400/3/6 406/3/6
f 405/1/6 398/1/6 406/1/6
f 398/3/6 399/3/6 406/3/6
f 393/3/6 403/3/6 407/3/6
f 407/3/6 403/3/6 408/3/6
f 403/1/6 404/1/6 409/1/6
f 408/3/6 403/3/6 409/3/6
f 404/3/6 401/3/6 410/3/6
f 409/1/6 404/1/6 410/1/6
f 406/3/6 400/3/6 411/3/6
f 400/3/6 386/3/6 411/3/6
f 405/3/6 406/3/6 411/3/6
f 411/3/6 386/3/6 412/3/6
f 365/3/6 393/3/6 413/3/6
f 393/3/6 407/3/6 413/3/6
f 413/3/6 407/3/6 414/3/6
f 410/3/6 401/3/6 415/3/6
f 409/3/6 410/3/6 415/3/6
f 408/3/6 409/3/6 415/3/6
f 402/3/6 405/3/6 416/3/6
f 405/3/6 411/3/6 416/3/6
f 413/2/6 414/2/6 417/2/6
f 365/3/6 413/3/6 417/3/6
f 414/3/6 407/3/6 418/3/6
f 417/2/6 414/2/6 418/2/6
f 417/3/6 418/3/6 419/3/6
f 418/3/6 407/3/6 419/3/6
f 408/3/6 415/3/6 420/3/6
f 415/3/6 416/3/6 420/3/6
f 420/3/6 416/3/6 421/3/6
f 421/3/6 416/3/6 422/3/6
f 416/3/6 411/3/6 423/3/6
f 422/3/6 416/3/6 423/3/6
f 423/3/6 411/3/6 424/3/6
f 422/3/6 423/3/6 425/3/6
f 423/2/6 424/2/6 425/2/6
f 424/3/6 411/3/6 426/3/6
f 425/2/6 424/2/6 426/2/6
f 419/3/6 420/3/6 427/3/6
f 420/3/6 421/3/6 427/3/6
f 422/3/6 425/3/6 428/3/6
f 425/3/6 426/3/6 428/3/6
f 411/1/6 412/1/6 429/1/6
f 426/3/6 411/3/6 429/3/6
f 428/3/6 426/3/6 429/3/6
f 412/3/6 386/3/6 430/3/6
f 429/1/6 412/1/6 430/1/6
f 417/3/6 419/3/6 431/3/6
f 365/3/6 417/3/6 431/3/6
f 429/3/6 430/3/6 431/3/6
f 428/3/6 429/3/6 431/3/6
f 419/3/6 427/3/6 431/3/6
f 427/3/6 428/3/6 431/3/6
f 431/3/6 430/3/6 432/3/6
f 432/3/6 430/3/6 433/3/6
f 433/3/6 430/3/6 434/3/6
f 432/3/6 433/3/6 435/3/6
f 435/3/6 433/3/6 436/3/6
f 436/3/6 433/3/6 437/3/6
f 437/3/6 433/3/6 438/3/6
f 432/3/6 435/3/6 439/3/6
f 439/3/6 435/3/6 440/3/6
f 435/2/6 436/2/6 441/2/6
f 440/3/6 435/3/6 441/3/6
f 436/3/6 437/3/6 442/3/6
f 441/2/6 436/2/6 442/2/6
f 439/2/6 440/2/6 443/2/6
f 432/3/6 439/3/6 443/3/6
f 440/3/6 441/3/6 444/3/6
f 443/2/6 440/2/6 444/2/6
f 441/3/6 442/3/6 444/3/6
f 444/3/6 442/3/6 445/3/6
f 445/3/6 442/3/6 446/3/6
f 438/3/6 433/3/6 447/3/6
f 434/3/6 430/3/6 448/3/6
f 431/2/6 432/2/6 449/2/6
f 432/3/6 443/3/6 450/3/6
f 449/2/6 432/2/6 450/2/6
f 443/3/6 444/3/6 450/3/6
f 444/3/6 445/3/6 450/3/6
f 446/3/6 442/3/6 451/3/6
f 442/3/6 437/3/6 451/3/6
f 447/3/6 448/3/6 452/3/6
f 438/3/6 447/3/6 452/3/6
f 450/3/6 445/3/6 453/3/6
f 449/3/6 450/3/6 453/3/6
f 453/3/6 445/3/6 454/3/6
f 448/3/6 430/3/6 455/3/6
f 451/3/6 452/3/6 455/3/6
f 452/3/6 448/3/6 455/3/6
f 455/3/6 430/3/6 456/3/6
f 449/3/6 453/3/6 457/3/6
f 457/3/6 453/3/6 458/3/6
f 453/2/6 454/2/6 459/2/6
f 458/3/6 453/3/6 459/3/6
f 454/3/6 445/3/6 460/3/6
f 459/2/6 454/2/6 460/2/6
f 446/3/6 451/3/6 461/3/6
f 451/3/6 455/3/6 461/3/6
f 461/3/6 455/3/6 462/3/6
f 462/3/6 455/3/6 463/3/6
f 463/3/6 455/3/6 464/3/6
f 449/3/6 457/3/6 465/3/6
f 458/3/6 459/3/6 466/3/6
f 459/3/6 460/3/6 466/3/6
f 460/3/6 445/3/6 467/3/6
f 466/3/6 460/3/6 467/3/6
f 446/3/6 461/3/6 468/3/6
f 461/2/6 462/2/6 469/2/6
f 468/3/6 461/3/6 469/3/6
f 462/3/6 463/3/6 470/3/6
f 469/2/6 462/2/6 470/2/6
f 464/3/6 455/3/6 471/3/6
f 456/3/6 430/3/6 472/3/6
f 464/3/6 471/3/6 473/3/6
f 471/3/6 472/3/6 473/3/6
f 473/3/6 472/3/6 474/3/6
f 465/3/6 466/3/6 475/3/6
f 468/3/6 469/3/6 475/3/6
f 466/3/6 467/3/6 475/3/6
f 467/3/6 468/3/6 475/3/6
f 469/3/6 470/3/6 475/3/6
f 475/3/6 470/3/6 476/3/6
f 476/3/6 470/3/6 477/3/6
f 477/3/6 470/3/6 478/3/6
f 476/3/6 477/3/6 479/3/6
f 477/1/6 478/1/6 479/1/6
f 478/3/6 470/3/6 480/3/6
f 479/1/6 478/1/6 480/1/6
f 473/2/6 474/2/6 481/2/6
f 464/3/6 473/3/6 481/3/6
f 474/3/6 472/3/6 482/3/6
f 481/2/6 474/2/6 482/2/6
f 449/3/6 465/3/6 483/3/6
f 465/3/6 475/3/6 483/3/6
f 475/1/6 476/1/6 484/1/6
f 483/3/6 475/3/6 484/3/6
f 479/3/6 480/3/6 485/3/6
f 484/1/6 476/1/6 485/1/6
f 476/3/6 479/3/6 485/3/6
f 480/3/6 470/3/6 486/3/6
f 485/3/6 480/3/6 486/3/6
f 470/3/6 463/3/6 486/3/6
f 464/3/6 481/3/6 487/3/6
f 481/3/6 482/3/6 487/3/6
f 430/3/6 386/3/6 488/3/6
f 487/3/6 482/3/6 488/3/6
f 386/3/6 318/3/6 488/3/6
f 482/3/6 472/3/6 488/3/6
f 472/3/6 430/3/6 488/3/6
f 489/1/6 490/1/6 497/1/6
f 497/1/6 490/1/6 498/1/6
f 493/1/6 494/1/6 499/1/6
f 499/1/6 494/1/6 500/1/6
f 491/2/6 492/2/6 501/2/6
f 501/2/6 492/2/6 502/2/6
f 495/2/6 496/2/6 503/2/6
f 503/2/6 496/2/6 504/2/6
f 505/2/6 506/2/6 507/2/6
f 507/2/6 506/2/6 508/2/6
f 509/2/6 510/2/6 513/2/6
f 513/2/6 510/2/6 514/2/6
f 511/1/6 512/1/6 519/1/6
f 519/1/6 512/1/6 520/1/6
f 517/2/6 518/2/6 521/2/6
f 521/2/6 518/2/6 522/2/6
f 515/2/6 516/2/6 523/2/6
f 523/2/6 516/2/6 524/2/6
f 525/2/6 526/2/6 529/2/6
f 529/2/6 526/2/6 530/2/6
f 527/2/6 528/2/6 531/2/6
f 531/2/6 528/2/6 532/2/6
f 533/1/6 534/1/6 535/1/6
f 535/1/6 534/1/6 536/1/6
f 537/2/6 538/2/6 543/2/6
f 543/2/6 538/2/6 544/2/6
f 539/1/6 540/1/6 545/1/6
f 545/1/6 540/1/6 546/1/6
f 549/1/6 550/1/6 553/1/6
f 553/1/6 550/1/6 554/1/6
f 541/2/6 542/2/6 555/2/6
f 555/2/6 542/2/6 556/2/6
f 547/1/6 548/1/6 557/1/6
f 557/1/6 548/1/6 558/1/6
f 551/2/6 552/2/6 559/2/6
f 559/2/6 552/2/6 560/2/6
