# MagicaVoxel @ Ephtracy

# group
o 

# material
mtllib GGJ tesla torch.mtl
usemtl palette

# normals
vn -1 0 0
vn 1 0 0
vn 0 0 1
vn 0 0 -1
vn 0 -1 0
vn 0 1 0

# texcoords
vt 0.220703 0.5
vt 0.228516 0.5
vt 0.333984 0.5

# verts
v 4.3 6.1 -5.3
v 4.3 6.1 -5.4
v 4.3 7.5 -5.3
v 4.3 7.5 -5.4
v 4.7 6.5 -5.2
v 4.7 6.5 -5.3
v 4.7 7.1 -5.2
v 4.7 7.1 -5.3
v 4.9 6.7 -4.6
v 4.9 6.7 -5.2
v 4.9 6.9 -4.8
v 4.9 6.9 -5.2
v 4.9 7.5 -4.6
v 4.9 7.5 -4.8
v 5.1 6.7 -4.6
v 5.1 6.7 -5.2
v 5.1 6.9 -4.8
v 5.1 6.9 -5.2
v 5.1 7.5 -4.6
v 5.1 7.5 -4.8
v 5.3 6.5 -5.2
v 5.3 6.5 -5.3
v 5.3 7.1 -5.2
v 5.3 7.1 -5.3
v 5.7 6.1 -5.3
v 5.7 6.1 -5.4
v 5.7 7.5 -5.3
v 5.7 7.5 -5.4
v 4.9 6.7 -4.6
v 4.9 7.5 -4.6
v 5.1 6.7 -4.6
v 5.1 7.5 -4.6
v 4.7 6.5 -5.2
v 4.7 7.1 -5.2
v 4.9 6.7 -5.2
v 4.9 6.9 -5.2
v 5.1 6.7 -5.2
v 5.1 6.9 -5.2
v 5.3 6.5 -5.2
v 5.3 7.1 -5.2
v 4.3 6.1 -5.3
v 4.3 7.5 -5.3
v 4.4 6.2 -5.3
v 4.4 7.4 -5.3
v 4.7 6.5 -5.3
v 4.7 7.1 -5.3
v 5.3 6.5 -5.3
v 5.3 7.1 -5.3
v 5.6 6.2 -5.3
v 5.6 7.4 -5.3
v 5.7 6.1 -5.3
v 5.7 7.5 -5.3
v 4.9 6.9 -4.8
v 4.9 7.5 -4.8
v 5.1 6.9 -4.8
v 5.1 7.5 -4.8
v 4.3 6.1 -5.4
v 4.3 7.5 -5.4
v 4.4 6.2 -5.4
v 4.4 7.4 -5.4
v 5.6 6.2 -5.4
v 5.6 7.4 -5.4
v 5.7 6.1 -5.4
v 5.7 7.5 -5.4
v 4.3 6.1 -5.3
v 5.7 6.1 -5.3
v 4.3 6.1 -5.4
v 5.7 6.1 -5.4
v 4.7 6.5 -5.2
v 5.3 6.5 -5.2
v 4.7 6.5 -5.3
v 5.3 6.5 -5.3
v 4.9 6.7 -4.6
v 5.1 6.7 -4.6
v 4.9 6.7 -5.2
v 5.1 6.7 -5.2
v 4.9 6.9 -4.8
v 5.1 6.9 -4.8
v 4.9 6.9 -5.2
v 5.1 6.9 -5.2
v 4.7 7.1 -5.2
v 5.3 7.1 -5.2
v 4.7 7.1 -5.3
v 5.3 7.1 -5.3
v 4.9 7.5 -4.6
v 5.1 7.5 -4.6
v 4.9 7.5 -4.8
v 5.1 7.5 -4.8
v 4.3 7.5 -5.3
v 5.7 7.5 -5.3
v 4.3 7.5 -5.4
v 5.7 7.5 -5.4

# faces
f 3/3/1 2/3/1 1/3/1
f 4/3/1 2/3/1 3/3/1
f 7/3/1 6/3/1 5/3/1
f 8/3/1 6/3/1 7/3/1
f 11/2/1 10/2/1 9/2/1
f 12/2/1 10/2/1 11/2/1
f 13/2/1 11/2/1 9/2/1
f 14/2/1 11/2/1 13/2/1
f 15/2/2 16/2/2 17/2/2
f 17/2/2 16/2/2 18/2/2
f 15/2/2 17/2/2 19/2/2
f 19/2/2 17/2/2 20/2/2
f 21/3/2 22/3/2 23/3/2
f 23/3/2 22/3/2 24/3/2
f 25/3/2 26/3/2 27/3/2
f 27/3/2 26/3/2 28/3/2
f 31/2/3 30/2/3 29/2/3
f 32/2/3 30/2/3 31/2/3
f 35/3/3 34/3/3 33/3/3
f 36/3/3 34/3/3 35/3/3
f 37/3/3 35/3/3 33/3/3
f 38/3/3 34/3/3 36/3/3
f 39/3/3 37/3/3 33/3/3
f 39/3/3 38/3/3 37/3/3
f 40/3/3 34/3/3 38/3/3
f 40/3/3 38/3/3 39/3/3
f 43/3/3 42/3/3 41/3/3
f 44/3/3 42/3/3 43/3/3
f 45/1/3 44/1/3 43/1/3
f 46/1/3 44/1/3 45/1/3
f 47/1/3 45/1/3 43/1/3
f 48/1/3 44/1/3 46/1/3
f 49/3/3 43/3/3 41/3/3
f 49/1/3 48/1/3 47/1/3
f 49/1/3 47/1/3 43/1/3
f 50/1/3 44/1/3 48/1/3
f 50/1/3 48/1/3 49/1/3
f 50/3/3 42/3/3 44/3/3
f 51/3/3 49/3/3 41/3/3
f 51/3/3 50/3/3 49/3/3
f 52/3/3 42/3/3 50/3/3
f 52/3/3 50/3/3 51/3/3
f 53/2/4 54/2/4 55/2/4
f 55/2/4 54/2/4 56/2/4
f 57/3/4 58/3/4 59/3/4
f 59/3/4 58/3/4 60/3/4
f 57/3/4 59/3/4 61/3/4
f 59/1/4 60/1/4 61/1/4
f 60/3/4 58/3/4 62/3/4
f 61/1/4 60/1/4 62/1/4
f 57/3/4 61/3/4 63/3/4
f 61/3/4 62/3/4 63/3/4
f 62/3/4 58/3/4 64/3/4
f 63/3/4 62/3/4 64/3/4
f 67/3/5 66/3/5 65/3/5
f 68/3/5 66/3/5 67/3/5
f 71/3/5 70/3/5 69/3/5
f 72/3/5 70/3/5 71/3/5
f 75/2/5 74/2/5 73/2/5
f 76/2/5 74/2/5 75/2/5
f 77/2/6 78/2/6 79/2/6
f 79/2/6 78/2/6 80/2/6
f 81/3/6 82/3/6 83/3/6
f 83/3/6 82/3/6 84/3/6
f 85/2/6 86/2/6 87/2/6
f 87/2/6 86/2/6 88/2/6
f 89/3/6 90/3/6 91/3/6
f 91/3/6 90/3/6 92/3/6
