# MagicaVoxel @ Ephtracy

# group
o 

# material
mtllib GGJ zombie tentacle arm 2.mtl
usemtl palette

# normals
vn -1 0 0
vn 1 0 0
vn 0 0 1
vn 0 0 -1
vn 0 -1 0
vn 0 1 0

# texcoords
vt 0.958984 0.5
vt 0.962891 0.5
vt 0.966797 0.5
vt 0.994141 0.5

# verts
v 6 6.1 -4.7
v 6 6.1 -4.8
v 6 6.2 -4.8
v 6 6.2 -4.9
v 6 6.4 -4.9
v 6 6.4 -5
v 6 6.6 -4.9
v 6 6.6 -5
v 6 6.6 -5.1
v 6 6.8 -4.9
v 6 6.8 -5.1
v 6 6.8 -5.2
v 6 7 -4.8
v 6 7 -5.2
v 6 7.1 -5.1
v 6 7.1 -5.2
v 6 7.4 -4.8
v 6 7.4 -5.1
v 6 8.8 -4.7
v 6 8.8 -4.8
v 6 9.1 -4.8
v 6 9.1 -5.1
v 6 9.5 -4.8
v 6 9.5 -4.9
v 6 9.5 -5.1
v 6 9.5 -5.2
v 6 9.6 -4.7
v 6 9.6 -4.9
v 6 9.6 -5.2
v 6.1 6.1 -4.6
v 6.1 6.1 -4.7
v 6.1 6.5 -4.6
v 6.1 6.5 -4.7
v 6.1 6.6 -4.6
v 6.1 6.6 -4.7
v 6.1 7 -4.6
v 6.1 7 -4.7
v 6.1 7.1 -4.6
v 6.1 7.1 -4.7
v 6.1 7.5 -4.6
v 6.1 7.5 -4.7
v 6.1 7.6 -4.6
v 6.1 7.6 -4.7
v 6.1 8 -4.6
v 6.1 8 -4.7
v 6.1 8.1 -4.6
v 6.1 8.1 -4.7
v 6.1 8.5 -4.6
v 6.1 8.5 -4.7
v 6.1 9.1 -4.8
v 6.1 9.1 -5.1
v 6.1 9.5 -4.8
v 6.1 9.5 -4.9
v 6.1 9.5 -5.1
v 6.3 6.2 -4.6
v 6.3 6.2 -4.7
v 6.3 6.4 -4.6
v 6.3 6.4 -4.7
v 6.3 6.7 -4.6
v 6.3 6.7 -4.7
v 6.3 6.9 -4.6
v 6.3 6.9 -4.7
v 6.3 7.2 -4.6
v 6.3 7.2 -4.7
v 6.3 7.4 -4.6
v 6.3 7.4 -4.7
v 6.3 7.7 -4.6
v 6.3 7.7 -4.7
v 6.3 7.9 -4.6
v 6.3 7.9 -4.7
v 6.3 8.2 -4.6
v 6.3 8.2 -4.7
v 6.3 8.4 -4.6
v 6.3 8.4 -4.7
v 6.2 6.2 -4.6
v 6.2 6.2 -4.7
v 6.2 6.4 -4.6
v 6.2 6.4 -4.7
v 6.2 6.7 -4.6
v 6.2 6.7 -4.7
v 6.2 6.9 -4.6
v 6.2 6.9 -4.7
v 6.2 7.2 -4.6
v 6.2 7.2 -4.7
v 6.2 7.4 -4.6
v 6.2 7.4 -4.7
v 6.2 7.7 -4.6
v 6.2 7.7 -4.7
v 6.2 7.9 -4.6
v 6.2 7.9 -4.7
v 6.2 8.2 -4.6
v 6.2 8.2 -4.7
v 6.2 8.4 -4.6
v 6.2 8.4 -4.7
v 6.4 6.1 -4.6
v 6.4 6.1 -4.7
v 6.4 6.5 -4.6
v 6.4 6.5 -4.7
v 6.4 6.6 -4.6
v 6.4 6.6 -4.7
v 6.4 7 -4.6
v 6.4 7 -4.7
v 6.4 7.1 -4.6
v 6.4 7.1 -4.7
v 6.4 7.5 -4.6
v 6.4 7.5 -4.7
v 6.4 7.6 -4.6
v 6.4 7.6 -4.7
v 6.4 8 -4.6
v 6.4 8 -4.7
v 6.4 8.1 -4.6
v 6.4 8.1 -4.7
v 6.4 8.5 -4.6
v 6.4 8.5 -4.7
v 6.5 6.1 -4.7
v 6.5 6.1 -4.8
v 6.5 6.2 -4.8
v 6.5 6.2 -4.9
v 6.5 6.4 -4.9
v 6.5 6.4 -5
v 6.5 6.6 -4.8
v 6.5 6.6 -5
v 6.5 6.6 -5.1
v 6.5 6.8 -5.1
v 6.5 6.8 -5.2
v 6.5 6.9 -4.8
v 6.5 6.9 -5.1
v 6.5 7.1 -5
v 6.5 7.1 -5.2
v 6.5 7.3 -5
v 6.5 7.3 -5.2
v 6.5 7.5 -4.8
v 6.5 7.5 -4.9
v 6.5 7.6 -4.8
v 6.5 7.6 -4.9
v 6.5 7.9 -4.9
v 6.5 7.9 -5
v 6.5 8 -4.9
v 6.5 8 -5
v 6.5 8.3 -4.8
v 6.5 8.3 -5
v 6.5 8.5 -4.8
v 6.5 8.5 -5
v 6.5 8.8 -4.7
v 6.5 8.8 -4.8
v 6.5 8.8 -5.1
v 6.5 8.8 -5.2
v 6.5 8.9 -5.1
v 6.5 8.9 -5.2
v 6.5 9 -4.9
v 6.5 9 -5.2
v 6.5 9.4 -4.9
v 6.5 9.4 -5.2
v 6.5 9.6 -4.7
v 6.5 9.6 -5.2
v 6.1 6.1 -4.6
v 6.1 6.5 -4.6
v 6.1 6.6 -4.6
v 6.1 7 -4.6
v 6.1 7.1 -4.6
v 6.1 7.5 -4.6
v 6.1 7.6 -4.6
v 6.1 8 -4.6
v 6.1 8.1 -4.6
v 6.1 8.5 -4.6
v 6.2 6.2 -4.6
v 6.2 6.4 -4.6
v 6.2 6.7 -4.6
v 6.2 6.9 -4.6
v 6.2 7.2 -4.6
v 6.2 7.4 -4.6
v 6.2 7.7 -4.6
v 6.2 7.9 -4.6
v 6.2 8.2 -4.6
v 6.2 8.4 -4.6
v 6.3 6.2 -4.6
v 6.3 6.4 -4.6
v 6.3 6.7 -4.6
v 6.3 6.9 -4.6
v 6.3 7.2 -4.6
v 6.3 7.4 -4.6
v 6.3 7.7 -4.6
v 6.3 7.9 -4.6
v 6.3 8.2 -4.6
v 6.3 8.4 -4.6
v 6.4 6.1 -4.6
v 6.4 6.5 -4.6
v 6.4 6.6 -4.6
v 6.4 7 -4.6
v 6.4 7.1 -4.6
v 6.4 7.5 -4.6
v 6.4 7.6 -4.6
v 6.4 8 -4.6
v 6.4 8.1 -4.6
v 6.4 8.5 -4.6
v 6 6.1 -4.7
v 6 8.8 -4.7
v 6 9.6 -4.7
v 6.1 6.1 -4.7
v 6.1 6.5 -4.7
v 6.1 6.6 -4.7
v 6.1 7 -4.7
v 6.1 7.1 -4.7
v 6.1 7.5 -4.7
v 6.1 7.6 -4.7
v 6.1 8 -4.7
v 6.1 8.1 -4.7
v 6.1 8.5 -4.7
v 6.1 8.8 -4.7
v 6.1 9 -4.7
v 6.2 6.2 -4.7
v 6.2 6.4 -4.7
v 6.2 6.7 -4.7
v 6.2 6.9 -4.7
v 6.2 7.2 -4.7
v 6.2 7.4 -4.7
v 6.2 7.7 -4.7
v 6.2 7.9 -4.7
v 6.2 8.2 -4.7
v 6.2 8.4 -4.7
v 6.2 9 -4.7
v 6.2 9.1 -4.7
v 6.3 6.2 -4.7
v 6.3 6.4 -4.7
v 6.3 6.7 -4.7
v 6.3 6.9 -4.7
v 6.3 7.2 -4.7
v 6.3 7.4 -4.7
v 6.3 7.7 -4.7
v 6.3 7.9 -4.7
v 6.3 8.2 -4.7
v 6.3 8.4 -4.7
v 6.3 9 -4.7
v 6.3 9.1 -4.7
v 6.4 6.1 -4.7
v 6.4 6.5 -4.7
v 6.4 6.6 -4.7
v 6.4 7 -4.7
v 6.4 7.1 -4.7
v 6.4 7.5 -4.7
v 6.4 7.6 -4.7
v 6.4 8 -4.7
v 6.4 8.1 -4.7
v 6.4 8.5 -4.7
v 6.4 8.8 -4.7
v 6.4 9 -4.7
v 6.5 6.1 -4.7
v 6.5 8.8 -4.7
v 6.5 9.6 -4.7
v 6 9.1 -5.1
v 6 9.5 -5.1
v 6.1 9.1 -5.1
v 6.1 9.5 -5.1
v 6 6.1 -4.8
v 6 6.2 -4.8
v 6 9.1 -4.8
v 6 9.5 -4.8
v 6.1 6.1 -4.8
v 6.1 6.2 -4.8
v 6.1 9.1 -4.8
v 6.1 9.5 -4.8
v 6.4 6.1 -4.8
v 6.4 6.2 -4.8
v 6.5 6.1 -4.8
v 6.5 6.2 -4.8
v 6 6.2 -4.9
v 6 6.4 -4.9
v 6.5 6.2 -4.9
v 6.5 6.4 -4.9
v 6 6.4 -5
v 6 6.6 -5
v 6.1 6.6 -5
v 6.4 6.6 -5
v 6.5 6.4 -5
v 6.5 6.6 -5
v 6 6.6 -5.1
v 6 6.8 -5.1
v 6.1 6.6 -5.1
v 6.1 6.8 -5.1
v 6.4 6.6 -5.1
v 6.4 6.8 -5.1
v 6.5 6.6 -5.1
v 6.5 6.8 -5.1
v 6 6.8 -5.2
v 6 7 -5.2
v 6 7.1 -5.2
v 6 9.5 -5.2
v 6 9.6 -5.2
v 6.1 7 -5.2
v 6.1 7.1 -5.2
v 6.1 7.7 -5.2
v 6.1 8 -5.2
v 6.1 8.6 -5.2
v 6.1 8.7 -5.2
v 6.1 9.3 -5.2
v 6.1 9.4 -5.2
v 6.2 8.6 -5.2
v 6.2 8.7 -5.2
v 6.2 9.3 -5.2
v 6.2 9.4 -5.2
v 6.3 8.1 -5.2
v 6.3 8.2 -5.2
v 6.3 9.5 -5.2
v 6.3 9.6 -5.2
v 6.4 7.1 -5.2
v 6.4 7.3 -5.2
v 6.4 7.7 -5.2
v 6.4 8 -5.2
v 6.4 8.1 -5.2
v 6.4 8.2 -5.2
v 6.4 8.8 -5.2
v 6.4 8.9 -5.2
v 6.4 9 -5.2
v 6.4 9.4 -5.2
v 6.5 6.8 -5.2
v 6.5 7.1 -5.2
v 6.5 7.3 -5.2
v 6.5 8.8 -5.2
v 6.5 8.9 -5.2
v 6.5 9 -5.2
v 6.5 9.4 -5.2
v 6.5 9.6 -5.2
v 6.1 6.1 -4.6
v 6.4 6.1 -4.6
v 6 6.1 -4.7
v 6.1 6.1 -4.7
v 6.4 6.1 -4.7
v 6.5 6.1 -4.7
v 6 6.1 -4.8
v 6.1 6.1 -4.8
v 6.4 6.1 -4.8
v 6.5 6.1 -4.8
v 6 6.2 -4.8
v 6.1 6.2 -4.8
v 6.4 6.2 -4.8
v 6.5 6.2 -4.8
v 6 6.2 -4.9
v 6.5 6.2 -4.9
v 6.2 6.4 -4.6
v 6.3 6.4 -4.6
v 6.2 6.4 -4.7
v 6.3 6.4 -4.7
v 6 6.4 -4.9
v 6.5 6.4 -4.9
v 6 6.4 -5
v 6.5 6.4 -5
v 6.1 6.6 -4.6
v 6.4 6.6 -4.6
v 6.1 6.6 -4.7
v 6.4 6.6 -4.7
v 6 6.6 -5
v 6.1 6.6 -5
v 6.4 6.6 -5
v 6.5 6.6 -5
v 6 6.6 -5.1
v 6.1 6.6 -5.1
v 6.4 6.6 -5.1
v 6.5 6.6 -5.1
v 6 6.8 -5.1
v 6.1 6.8 -5.1
v 6.4 6.8 -5.1
v 6.5 6.8 -5.1
v 6 6.8 -5.2
v 6.5 6.8 -5.2
v 6.2 6.9 -4.6
v 6.3 6.9 -4.6
v 6.2 6.9 -4.7
v 6.3 6.9 -4.7
v 6.1 7.1 -4.6
v 6.4 7.1 -4.6
v 6.1 7.1 -4.7
v 6.4 7.1 -4.7
v 6.2 7.4 -4.6
v 6.3 7.4 -4.6
v 6.2 7.4 -4.7
v 6.3 7.4 -4.7
v 6.1 7.6 -4.6
v 6.4 7.6 -4.6
v 6.1 7.6 -4.7
v 6.4 7.6 -4.7
v 6.2 7.9 -4.6
v 6.3 7.9 -4.6
v 6.2 7.9 -4.7
v 6.3 7.9 -4.7
v 6.1 8.1 -4.6
v 6.4 8.1 -4.6
v 6.1 8.1 -4.7
v 6.4 8.1 -4.7
v 6.2 8.4 -4.6
v 6.3 8.4 -4.6
v 6.2 8.4 -4.7
v 6.3 8.4 -4.7
v 6 9.5 -4.8
v 6.1 9.5 -4.8
v 6 9.5 -4.9
v 6.1 9.5 -4.9
v 6 9.5 -5.1
v 6.1 9.5 -5.1
v 6.2 6.2 -4.6
v 6.3 6.2 -4.6
v 6.2 6.2 -4.7
v 6.3 6.2 -4.7
v 6.1 6.5 -4.6
v 6.4 6.5 -4.6
v 6.1 6.5 -4.7
v 6.4 6.5 -4.7
v 6.2 6.7 -4.6
v 6.3 6.7 -4.6
v 6.2 6.7 -4.7
v 6.3 6.7 -4.7
v 6.1 7 -4.6
v 6.4 7 -4.6
v 6.1 7 -4.7
v 6.4 7 -4.7
v 6.2 7.2 -4.6
v 6.3 7.2 -4.6
v 6.2 7.2 -4.7
v 6.3 7.2 -4.7
v 6.1 7.5 -4.6
v 6.4 7.5 -4.6
v 6.1 7.5 -4.7
v 6.4 7.5 -4.7
v 6.2 7.7 -4.6
v 6.3 7.7 -4.6
v 6.2 7.7 -4.7
v 6.3 7.7 -4.7
v 6.1 8 -4.6
v 6.4 8 -4.6
v 6.1 8 -4.7
v 6.4 8 -4.7
v 6.2 8.2 -4.6
v 6.3 8.2 -4.6
v 6.2 8.2 -4.7
v 6.3 8.2 -4.7
v 6.1 8.5 -4.6
v 6.4 8.5 -4.6
v 6.1 8.5 -4.7
v 6.4 8.5 -4.7
v 6 9.1 -4.8
v 6.1 9.1 -4.8
v 6 9.1 -5.1
v 6.1 9.1 -5.1
v 6 9.6 -4.7
v 6.5 9.6 -4.7
v 6 9.6 -4.9
v 6.3 9.6 -4.9
v 6 9.6 -5.2
v 6.3 9.6 -5.2
v 6.5 9.6 -5.2

# faces
f 3/2/1 2/2/1 1/2/1
f 5/3/1 4/3/1 3/3/1
f 7/3/1 5/3/1 3/3/1
f 7/3/1 6/3/1 5/3/1
f 8/3/1 6/3/1 7/3/1
f 10/3/1 7/3/1 3/3/1
f 10/1/1 9/1/1 8/1/1
f 10/1/1 8/1/1 7/1/1
f 11/1/1 9/1/1 10/1/1
f 13/2/1 3/2/1 1/2/1
f 13/3/1 12/3/1 11/3/1
f 13/3/1 11/3/1 10/3/1
f 13/3/1 10/3/1 3/3/1
f 14/3/1 12/3/1 13/3/1
f 15/1/1 14/1/1 13/1/1
f 16/1/1 14/1/1 15/1/1
f 17/2/1 13/2/1 1/2/1
f 17/1/1 15/1/1 13/1/1
f 18/3/1 16/3/1 15/3/1
f 18/1/1 15/1/1 17/1/1
f 19/2/1 17/2/1 1/2/1
f 20/3/1 18/3/1 17/3/1
f 20/2/1 17/2/1 19/2/1
f 21/3/1 20/3/1 19/3/1
f 21/3/1 18/3/1 20/3/1
f 22/3/1 16/3/1 18/3/1
f 22/3/1 18/3/1 21/3/1
f 23/3/1 21/3/1 19/3/1
f 25/3/1 16/3/1 22/3/1
f 26/3/1 16/3/1 25/3/1
f 27/3/1 24/3/1 23/3/1
f 27/3/1 23/3/1 19/3/1
f 28/1/1 26/1/1 25/1/1
f 28/3/1 24/3/1 27/3/1
f 28/1/1 25/1/1 24/1/1
f 29/1/1 26/1/1 28/1/1
f 32/3/1 31/3/1 30/3/1
f 33/3/1 31/3/1 32/3/1
f 36/3/1 35/3/1 34/3/1
f 37/3/1 35/3/1 36/3/1
f 40/3/1 39/3/1 38/3/1
f 41/3/1 39/3/1 40/3/1
f 44/3/1 43/3/1 42/3/1
f 45/3/1 43/3/1 44/3/1
f 48/3/1 47/3/1 46/3/1
f 49/3/1 47/3/1 48/3/1
f 52/4/1 51/4/1 50/4/1
f 53/4/1 51/4/1 52/4/1
f 54/4/1 51/4/1 53/4/1
f 57/3/1 56/3/1 55/3/1
f 58/3/1 56/3/1 57/3/1
f 61/3/1 60/3/1 59/3/1
f 62/3/1 60/3/1 61/3/1
f 65/3/1 64/3/1 63/3/1
f 66/3/1 64/3/1 65/3/1
f 69/3/1 68/3/1 67/3/1
f 70/3/1 68/3/1 69/3/1
f 73/3/1 72/3/1 71/3/1
f 74/3/1 72/3/1 73/3/1
f 75/3/2 76/3/2 77/3/2
f 77/3/2 76/3/2 78/3/2
f 79/3/2 80/3/2 81/3/2
f 81/3/2 80/3/2 82/3/2
f 83/3/2 84/3/2 85/3/2
f 85/3/2 84/3/2 86/3/2
f 87/3/2 88/3/2 89/3/2
f 89/3/2 88/3/2 90/3/2
f 91/3/2 92/3/2 93/3/2
f 93/3/2 92/3/2 94/3/2
f 95/3/2 96/3/2 97/3/2
f 97/3/2 96/3/2 98/3/2
f 99/3/2 100/3/2 101/3/2
f 101/3/2 100/3/2 102/3/2
f 103/3/2 104/3/2 105/3/2
f 105/3/2 104/3/2 106/3/2
f 107/3/2 108/3/2 109/3/2
f 109/3/2 108/3/2 110/3/2
f 111/3/2 112/3/2 113/3/2
f 113/3/2 112/3/2 114/3/2
f 115/2/2 116/2/2 117/2/2
f 117/3/2 118/3/2 119/3/2
f 115/2/2 117/2/2 121/2/2
f 119/3/2 120/3/2 121/3/2
f 117/3/2 119/3/2 121/3/2
f 121/3/2 120/3/2 122/3/2
f 121/1/2 122/1/2 124/1/2
f 122/1/2 123/1/2 124/1/2
f 115/2/2 121/2/2 126/2/2
f 121/1/2 124/1/2 126/1/2
f 124/3/2 125/3/2 127/3/2
f 126/1/2 124/1/2 127/1/2
f 126/3/2 127/3/2 128/3/2
f 127/3/2 125/3/2 129/3/2
f 128/3/2 127/3/2 129/3/2
f 126/3/2 128/3/2 130/3/2
f 128/1/2 129/1/2 130/1/2
f 130/1/2 129/1/2 131/1/2
f 115/2/2 126/2/2 132/2/2
f 126/3/2 130/3/2 132/3/2
f 130/3/2 131/3/2 132/3/2
f 132/3/2 131/3/2 133/3/2
f 115/2/2 132/2/2 134/2/2
f 132/1/2 133/1/2 134/1/2
f 133/3/2 131/3/2 135/3/2
f 134/1/2 133/1/2 135/1/2
f 134/3/2 135/3/2 136/3/2
f 135/3/2 131/3/2 136/3/2
f 136/3/2 131/3/2 137/3/2
f 134/3/2 136/3/2 138/3/2
f 136/1/2 137/1/2 138/1/2
f 137/3/2 131/3/2 139/3/2
f 138/1/2 137/1/2 139/1/2
f 115/2/2 134/2/2 140/2/2
f 134/3/2 138/3/2 140/3/2
f 138/3/2 139/3/2 140/3/2
f 139/3/2 131/3/2 141/3/2
f 140/3/2 139/3/2 141/3/2
f 115/2/2 140/2/2 142/2/2
f 140/1/2 141/1/2 142/1/2
f 141/3/2 131/3/2 143/3/2
f 142/1/2 141/1/2 143/1/2
f 115/2/2 142/2/2 144/2/2
f 142/3/2 143/3/2 145/3/2
f 144/2/2 142/2/2 145/2/2
f 143/3/2 131/3/2 146/3/2
f 145/3/2 143/3/2 146/3/2
f 146/3/2 131/3/2 147/3/2
f 144/3/2 145/3/2 148/3/2
f 145/3/2 146/3/2 148/3/2
f 146/1/2 147/1/2 148/1/2
f 148/1/2 147/1/2 149/1/2
f 144/3/2 148/3/2 150/3/2
f 148/3/2 149/3/2 150/3/2
f 150/3/2 149/3/2 151/3/2
f 144/3/2 150/3/2 152/3/2
f 150/1/2 151/1/2 152/1/2
f 152/1/2 151/1/2 153/1/2
f 144/3/2 152/3/2 154/3/2
f 152/3/2 153/3/2 154/3/2
f 154/3/2 153/3/2 155/3/2
f 166/3/3 157/3/3 156/3/3
f 167/3/3 157/3/3 166/3/3
f 168/3/3 159/3/3 158/3/3
f 169/3/3 159/3/3 168/3/3
f 170/3/3 161/3/3 160/3/3
f 171/3/3 161/3/3 170/3/3
f 172/3/3 163/3/3 162/3/3
f 173/3/3 163/3/3 172/3/3
f 174/3/3 165/3/3 164/3/3
f 175/3/3 165/3/3 174/3/3
f 176/3/3 166/3/3 156/3/3
f 177/3/3 157/3/3 167/3/3
f 178/3/3 168/3/3 158/3/3
f 179/3/3 159/3/3 169/3/3
f 180/3/3 170/3/3 160/3/3
f 181/3/3 161/3/3 171/3/3
f 182/3/3 172/3/3 162/3/3
f 183/3/3 163/3/3 173/3/3
f 184/3/3 174/3/3 164/3/3
f 185/3/3 165/3/3 175/3/3
f 186/3/3 176/3/3 156/3/3
f 186/3/3 177/3/3 176/3/3
f 187/3/3 157/3/3 177/3/3
f 187/3/3 177/3/3 186/3/3
f 188/3/3 178/3/3 158/3/3
f 188/3/3 179/3/3 178/3/3
f 189/3/3 159/3/3 179/3/3
f 189/3/3 179/3/3 188/3/3
f 190/3/3 180/3/3 160/3/3
f 190/3/3 181/3/3 180/3/3
f 191/3/3 161/3/3 181/3/3
f 191/3/3 181/3/3 190/3/3
f 192/3/3 182/3/3 162/3/3
f 192/3/3 183/3/3 182/3/3
f 193/3/3 163/3/3 183/3/3
f 193/3/3 183/3/3 192/3/3
f 194/3/3 185/3/3 184/3/3
f 194/3/3 184/3/3 164/3/3
f 195/3/3 165/3/3 185/3/3
f 195/3/3 185/3/3 194/3/3
f 199/2/3 197/2/3 196/2/3
f 200/2/3 197/2/3 199/2/3
f 201/2/3 197/2/3 200/2/3
f 202/2/3 197/2/3 201/2/3
f 203/2/3 197/2/3 202/2/3
f 204/2/3 197/2/3 203/2/3
f 205/2/3 197/2/3 204/2/3
f 206/2/3 197/2/3 205/2/3
f 207/2/3 197/2/3 206/2/3
f 208/2/3 197/2/3 207/2/3
f 209/3/3 198/3/3 197/3/3
f 209/2/3 197/2/3 208/2/3
f 210/3/3 198/3/3 209/3/3
f 221/3/3 198/3/3 210/3/3
f 221/2/3 210/2/3 209/2/3
f 221/2/3 209/2/3 208/2/3
f 222/3/3 198/3/3 221/3/3
f 223/2/3 212/2/3 211/2/3
f 224/2/3 212/2/3 223/2/3
f 225/2/3 214/2/3 213/2/3
f 226/2/3 214/2/3 225/2/3
f 227/2/3 216/2/3 215/2/3
f 228/2/3 216/2/3 227/2/3
f 229/2/3 218/2/3 217/2/3
f 230/2/3 218/2/3 229/2/3
f 231/2/3 220/2/3 219/2/3
f 232/2/3 220/2/3 231/2/3
f 233/2/3 221/2/3 208/2/3
f 233/2/3 222/2/3 221/2/3
f 234/3/3 198/3/3 222/3/3
f 234/2/3 222/2/3 233/2/3
f 236/2/3 201/2/3 200/2/3
f 237/2/3 201/2/3 236/2/3
f 238/2/3 203/2/3 202/2/3
f 239/2/3 203/2/3 238/2/3
f 240/2/3 205/2/3 204/2/3
f 241/2/3 205/2/3 240/2/3
f 242/2/3 207/2/3 206/2/3
f 243/2/3 207/2/3 242/2/3
f 244/2/3 233/2/3 208/2/3
f 245/2/3 233/2/3 244/2/3
f 246/3/3 234/3/3 233/3/3
f 246/2/3 233/2/3 245/2/3
f 247/2/3 245/2/3 244/2/3
f 247/2/3 237/2/3 236/2/3
f 247/2/3 241/2/3 240/2/3
f 247/2/3 244/2/3 243/2/3
f 247/2/3 239/2/3 238/2/3
f 247/2/3 242/2/3 241/2/3
f 247/2/3 243/2/3 242/2/3
f 247/2/3 240/2/3 239/2/3
f 247/2/3 236/2/3 235/2/3
f 247/2/3 238/2/3 237/2/3
f 248/3/3 246/3/3 245/3/3
f 248/2/3 245/2/3 247/2/3
f 249/3/3 198/3/3 234/3/3
f 249/3/3 246/3/3 248/3/3
f 249/3/3 234/3/3 246/3/3
f 252/3/3 251/3/3 250/3/3
f 253/3/3 251/3/3 252/3/3
f 254/2/4 255/2/4 258/2/4
f 258/2/4 255/2/4 259/2/4
f 256/3/4 257/3/4 260/3/4
f 260/3/4 257/3/4 261/3/4
f 258/3/4 259/3/4 262/3/4
f 262/3/4 259/3/4 263/3/4
f 262/2/4 263/2/4 264/2/4
f 264/2/4 263/2/4 265/2/4
f 266/3/4 267/3/4 268/3/4
f 268/3/4 267/3/4 269/3/4
f 270/3/4 271/3/4 272/3/4
f 270/3/4 272/3/4 273/3/4
f 270/3/4 273/3/4 274/3/4
f 274/3/4 273/3/4 275/3/4
f 276/1/4 277/1/4 278/1/4
f 278/1/4 277/1/4 279/1/4
f 278/3/4 279/3/4 280/3/4
f 280/3/4 279/3/4 281/3/4
f 280/1/4 281/1/4 282/1/4
f 282/1/4 281/1/4 283/1/4
f 284/3/4 285/3/4 289/3/4
f 285/1/4 286/1/4 289/1/4
f 286/3/4 287/3/4 290/3/4
f 289/1/4 286/1/4 290/1/4
f 290/3/4 287/3/4 291/3/4
f 291/3/4 287/3/4 292/3/4
f 292/3/4 287/3/4 293/3/4
f 293/3/4 287/3/4 294/3/4
f 294/3/4 287/3/4 295/3/4
f 295/3/4 287/3/4 296/3/4
f 292/3/4 293/3/4 297/3/4
f 293/1/4 294/1/4 297/1/4
f 294/3/4 295/3/4 298/3/4
f 297/1/4 294/1/4 298/1/4
f 295/1/4 296/1/4 299/1/4
f 298/3/4 295/3/4 299/3/4
f 296/3/4 287/3/4 300/3/4
f 299/1/4 296/1/4 300/1/4
f 298/3/4 299/3/4 301/3/4
f 297/3/4 298/3/4 301/3/4
f 299/3/4 300/3/4 301/3/4
f 292/3/4 297/3/4 301/3/4
f 301/3/4 300/3/4 302/3/4
f 287/1/4 288/1/4 303/1/4
f 302/3/4 300/3/4 303/3/4
f 300/3/4 287/3/4 303/3/4
f 303/1/4 288/1/4 304/1/4
f 289/3/4 290/3/4 305/3/4
f 290/3/4 291/3/4 305/3/4
f 305/3/4 291/3/4 306/3/4
f 291/1/4 292/1/4 307/1/4
f 306/3/4 291/3/4 307/3/4
f 292/3/4 301/3/4 308/3/4
f 307/1/4 292/1/4 308/1/4
f 301/1/4 302/1/4 309/1/4
f 308/3/4 301/3/4 309/3/4
f 303/3/4 304/3/4 310/3/4
f 309/1/4 302/1/4 310/1/4
f 302/3/4 303/3/4 310/3/4
f 310/3/4 304/3/4 311/3/4
f 311/3/4 304/3/4 312/3/4
f 312/3/4 304/3/4 313/3/4
f 313/3/4 304/3/4 314/3/4
f 284/3/4 289/3/4 315/3/4
f 289/3/4 305/3/4 315/3/4
f 305/1/4 306/1/4 316/1/4
f 315/3/4 305/3/4 316/3/4
f 307/3/4 308/3/4 317/3/4
f 316/1/4 306/1/4 317/1/4
f 308/3/4 309/3/4 317/3/4
f 306/3/4 307/3/4 317/3/4
f 309/3/4 310/3/4 317/3/4
f 310/3/4 311/3/4 317/3/4
f 311/1/4 312/1/4 318/1/4
f 317/3/4 311/3/4 318/3/4
f 312/3/4 313/3/4 319/3/4
f 318/1/4 312/1/4 319/1/4
f 313/1/4 314/1/4 320/1/4
f 319/3/4 313/3/4 320/3/4
f 314/3/4 304/3/4 321/3/4
f 320/1/4 314/1/4 321/1/4
f 321/3/4 304/3/4 322/3/4
f 326/3/5 324/3/5 323/3/5
f 327/3/5 324/3/5 326/3/5
f 329/2/5 326/2/5 325/2/5
f 330/3/5 327/3/5 326/3/5
f 330/2/5 326/2/5 329/2/5
f 331/2/5 328/2/5 327/2/5
f 331/3/5 327/3/5 330/3/5
f 332/2/5 328/2/5 331/2/5
f 337/3/5 334/3/5 333/3/5
f 337/3/5 336/3/5 335/3/5
f 337/3/5 335/3/5 334/3/5
f 338/3/5 336/3/5 337/3/5
f 341/3/5 340/3/5 339/3/5
f 342/3/5 340/3/5 341/3/5
f 345/3/5 344/3/5 343/3/5
f 346/3/5 344/3/5 345/3/5
f 349/3/5 348/3/5 347/3/5
f 350/3/5 348/3/5 349/3/5
f 355/1/5 352/1/5 351/1/5
f 356/3/5 353/3/5 352/3/5
f 356/1/5 352/1/5 355/1/5
f 357/1/5 354/1/5 353/1/5
f 357/3/5 353/3/5 356/3/5
f 358/1/5 354/1/5 357/1/5
f 363/3/5 360/3/5 359/3/5
f 363/3/5 362/3/5 361/3/5
f 363/3/5 361/3/5 360/3/5
f 364/3/5 362/3/5 363/3/5
f 367/3/5 366/3/5 365/3/5
f 368/3/5 366/3/5 367/3/5
f 371/3/5 370/3/5 369/3/5
f 372/3/5 370/3/5 371/3/5
f 375/3/5 374/3/5 373/3/5
f 376/3/5 374/3/5 375/3/5
f 379/3/5 378/3/5 377/3/5
f 380/3/5 378/3/5 379/3/5
f 383/3/5 382/3/5 381/3/5
f 384/3/5 382/3/5 383/3/5
f 387/3/5 386/3/5 385/3/5
f 388/3/5 386/3/5 387/3/5
f 391/3/5 390/3/5 389/3/5
f 392/3/5 390/3/5 391/3/5
f 395/3/5 394/3/5 393/3/5
f 396/3/5 394/3/5 395/3/5
f 397/1/5 396/1/5 395/1/5
f 398/1/5 396/1/5 397/1/5
f 399/3/6 400/3/6 401/3/6
f 401/3/6 400/3/6 402/3/6
f 403/3/6 404/3/6 405/3/6
f 405/3/6 404/3/6 406/3/6
f 407/3/6 408/3/6 409/3/6
f 409/3/6 408/3/6 410/3/6
f 411/3/6 412/3/6 413/3/6
f 413/3/6 412/3/6 414/3/6
f 415/3/6 416/3/6 417/3/6
f 417/3/6 416/3/6 418/3/6
f 419/3/6 420/3/6 421/3/6
f 421/3/6 420/3/6 422/3/6
f 423/3/6 424/3/6 425/3/6
f 425/3/6 424/3/6 426/3/6
f 427/3/6 428/3/6 429/3/6
f 429/3/6 428/3/6 430/3/6
f 431/3/6 432/3/6 433/3/6
f 433/3/6 432/3/6 434/3/6
f 435/3/6 436/3/6 437/3/6
f 437/3/6 436/3/6 438/3/6
f 439/3/6 440/3/6 441/3/6
f 441/3/6 440/3/6 442/3/6
f 443/3/6 444/3/6 445/3/6
f 445/3/6 444/3/6 446/3/6
f 445/1/6 446/1/6 447/1/6
f 446/3/6 444/3/6 448/3/6
f 447/1/6 446/1/6 448/1/6
f 448/3/6 444/3/6 449/3/6
