# MagicaVoxel @ Ephtracy

# group
o 

# material
mtllib GGJ zombie body.mtl
usemtl palette

# normals
vn -1 0 0
vn 1 0 0
vn 0 0 1
vn 0 0 -1
vn 0 -1 0
vn 0 1 0

# texcoords
vt 0.279297 0.5
vt 0.994141 0.5

# verts
v 4 7.8 -4.7
v 4 7.8 -5.4
v 4 9.1 -4.8
v 4 9.1 -5.3
v 4 9.6 -4.8
v 4 9.6 -5.3
v 4 9.7 -4.7
v 4 9.7 -5.4
v 4.1 7.8 -4.5
v 4.1 7.8 -4.7
v 4.1 7.8 -5.4
v 4.1 7.8 -5.6
v 4.1 9.1 -4.8
v 4.1 9.1 -5.3
v 4.1 9.6 -4.8
v 4.1 9.6 -5.3
v 4.1 9.7 -4.7
v 4.1 9.7 -5.4
v 4.1 9.8 -4.5
v 4.1 9.8 -5.6
v 4.3 7.8 -4.4
v 4.3 7.8 -4.5
v 4.3 7.8 -5.6
v 4.3 7.8 -5.7
v 4.3 9.7 -4.4
v 4.3 9.7 -4.5
v 4.3 9.7 -5.6
v 4.3 9.7 -5.7
v 4.9 9.1 -4.4
v 4.9 9.1 -4.5
v 4.9 9.3 -4.4
v 4.9 9.3 -4.5
v 5.1 8.4 -4.4
v 5.1 8.4 -4.5
v 5.1 8.5 -4.4
v 5.1 8.5 -4.5
v 5.2 8.5 -4.4
v 5.2 8.5 -4.5
v 5.2 8.6 -4.4
v 5.2 8.6 -4.5
v 5.3 8.6 -4.4
v 5.3 8.6 -4.5
v 5.3 8.7 -4.4
v 5.3 8.7 -4.5
v 5.4 8.7 -4.4
v 5.4 8.7 -4.5
v 5.4 8.8 -4.4
v 5.4 8.8 -4.5
v 5.4 9.2 -4.4
v 5.4 9.2 -4.5
v 5.4 9.3 -4.4
v 5.4 9.3 -4.5
v 5.5 8.8 -4.4
v 5.5 8.8 -4.5
v 5.5 9.2 -4.4
v 5.5 9.2 -4.5
v 4.5 8.8 -4.4
v 4.5 8.8 -4.5
v 4.5 9.2 -4.4
v 4.5 9.2 -4.5
v 4.6 8.7 -4.4
v 4.6 8.7 -4.5
v 4.6 8.8 -4.4
v 4.6 8.8 -4.5
v 4.6 9.2 -4.4
v 4.6 9.2 -4.5
v 4.6 9.3 -4.4
v 4.6 9.3 -4.5
v 4.7 8.6 -4.4
v 4.7 8.6 -4.5
v 4.7 8.7 -4.4
v 4.7 8.7 -4.5
v 4.8 8.5 -4.4
v 4.8 8.5 -4.5
v 4.8 8.6 -4.4
v 4.8 8.6 -4.5
v 4.9 8.4 -4.4
v 4.9 8.4 -4.5
v 4.9 8.5 -4.4
v 4.9 8.5 -4.5
v 5.1 9.1 -4.4
v 5.1 9.1 -4.5
v 5.1 9.3 -4.4
v 5.1 9.3 -4.5
v 5.7 7.8 -4.4
v 5.7 7.8 -4.5
v 5.7 7.8 -5.6
v 5.7 7.8 -5.7
v 5.7 9.7 -4.4
v 5.7 9.7 -4.5
v 5.7 9.7 -5.6
v 5.7 9.7 -5.7
v 5.9 7.8 -4.5
v 5.9 7.8 -4.7
v 5.9 7.8 -5.4
v 5.9 7.8 -5.6
v 5.9 9.1 -4.8
v 5.9 9.1 -5.3
v 5.9 9.6 -4.8
v 5.9 9.6 -5.3
v 5.9 9.7 -4.7
v 5.9 9.7 -5.4
v 5.9 9.8 -4.5
v 5.9 9.8 -5.6
v 6 7.8 -4.7
v 6 7.8 -5.4
v 6 9.1 -4.8
v 6 9.1 -5.3
v 6 9.6 -4.8
v 6 9.6 -5.3
v 6 9.7 -4.7
v 6 9.7 -5.4
v 4.3 7.8 -4.4
v 4.3 9.7 -4.4
v 4.5 8.8 -4.4
v 4.5 9.2 -4.4
v 4.6 8.7 -4.4
v 4.6 8.8 -4.4
v 4.6 9.2 -4.4
v 4.6 9.3 -4.4
v 4.7 8.6 -4.4
v 4.7 8.7 -4.4
v 4.8 8.5 -4.4
v 4.8 8.6 -4.4
v 4.9 8.4 -4.4
v 4.9 8.5 -4.4
v 4.9 9.1 -4.4
v 4.9 9.3 -4.4
v 5.1 8.4 -4.4
v 5.1 8.5 -4.4
v 5.1 9.1 -4.4
v 5.1 9.3 -4.4
v 5.2 8.5 -4.4
v 5.2 8.6 -4.4
v 5.3 8.6 -4.4
v 5.3 8.7 -4.4
v 5.4 8.7 -4.4
v 5.4 8.8 -4.4
v 5.4 9.2 -4.4
v 5.4 9.3 -4.4
v 5.5 8.8 -4.4
v 5.5 9.2 -4.4
v 5.7 7.8 -4.4
v 5.7 9.7 -4.4
v 4.1 7.8 -4.5
v 4.1 9.8 -4.5
v 4.3 7.8 -4.5
v 4.3 9.7 -4.5
v 4.5 8.8 -4.5
v 4.5 9.2 -4.5
v 4.6 8.7 -4.5
v 4.6 8.8 -4.5
v 4.6 9.2 -4.5
v 4.6 9.3 -4.5
v 4.7 8.6 -4.5
v 4.7 8.7 -4.5
v 4.8 8.5 -4.5
v 4.8 8.6 -4.5
v 4.9 8.4 -4.5
v 4.9 8.5 -4.5
v 4.9 9.1 -4.5
v 4.9 9.3 -4.5
v 5.1 8.4 -4.5
v 5.1 8.5 -4.5
v 5.1 9.1 -4.5
v 5.1 9.3 -4.5
v 5.2 8.5 -4.5
v 5.2 8.6 -4.5
v 5.3 8.6 -4.5
v 5.3 8.7 -4.5
v 5.4 8.7 -4.5
v 5.4 8.8 -4.5
v 5.4 9.2 -4.5
v 5.4 9.3 -4.5
v 5.5 8.8 -4.5
v 5.5 9.2 -4.5
v 5.7 7.8 -4.5
v 5.7 9.7 -4.5
v 5.9 7.8 -4.5
v 5.9 9.8 -4.5
v 4 7.8 -4.7
v 4 9.7 -4.7
v 4.1 7.8 -4.7
v 4.1 9.7 -4.7
v 5.9 7.8 -4.7
v 5.9 9.7 -4.7
v 6 7.8 -4.7
v 6 9.7 -4.7
v 4 9.1 -5.3
v 4 9.6 -5.3
v 4.1 9.1 -5.3
v 4.1 9.6 -5.3
v 5.9 9.1 -5.3
v 5.9 9.6 -5.3
v 6 9.1 -5.3
v 6 9.6 -5.3
v 4 9.1 -4.8
v 4 9.6 -4.8
v 4.1 9.1 -4.8
v 4.1 9.6 -4.8
v 5.9 9.1 -4.8
v 5.9 9.6 -4.8
v 6 9.1 -4.8
v 6 9.6 -4.8
v 4 7.8 -5.4
v 4 9.7 -5.4
v 4.1 7.8 -5.4
v 4.1 9.7 -5.4
v 5.9 7.8 -5.4
v 5.9 9.7 -5.4
v 6 7.8 -5.4
v 6 9.7 -5.4
v 4.1 7.8 -5.6
v 4.1 9.8 -5.6
v 4.3 7.8 -5.6
v 4.3 9.7 -5.6
v 5.7 7.8 -5.6
v 5.7 9.7 -5.6
v 5.9 7.8 -5.6
v 5.9 9.8 -5.6
v 4.3 7.8 -5.7
v 4.3 9.7 -5.7
v 5.7 7.8 -5.7
v 5.7 9.7 -5.7
v 4.3 7.8 -4.4
v 5.7 7.8 -4.4
v 4.1 7.8 -4.5
v 4.3 7.8 -4.5
v 5.7 7.8 -4.5
v 5.9 7.8 -4.5
v 4 7.8 -4.7
v 4.1 7.8 -4.7
v 5.9 7.8 -4.7
v 6 7.8 -4.7
v 4 7.8 -5.4
v 4.1 7.8 -5.4
v 5.9 7.8 -5.4
v 6 7.8 -5.4
v 4.1 7.8 -5.6
v 4.3 7.8 -5.6
v 5.7 7.8 -5.6
v 5.9 7.8 -5.6
v 4.3 7.8 -5.7
v 5.7 7.8 -5.7
v 4.9 9.1 -4.4
v 5.1 9.1 -4.4
v 4.9 9.1 -4.5
v 5.1 9.1 -4.5
v 4.5 9.2 -4.4
v 4.6 9.2 -4.4
v 5.4 9.2 -4.4
v 5.5 9.2 -4.4
v 4.5 9.2 -4.5
v 4.6 9.2 -4.5
v 5.4 9.2 -4.5
v 5.5 9.2 -4.5
v 4.6 9.3 -4.4
v 4.9 9.3 -4.4
v 5.1 9.3 -4.4
v 5.4 9.3 -4.4
v 4.6 9.3 -4.5
v 4.9 9.3 -4.5
v 5.1 9.3 -4.5
v 5.4 9.3 -4.5
v 4 9.6 -4.8
v 4.1 9.6 -4.8
v 5.9 9.6 -4.8
v 6 9.6 -4.8
v 4 9.6 -5.3
v 4.1 9.6 -5.3
v 5.9 9.6 -5.3
v 6 9.6 -5.3
v 4.9 8.4 -4.4
v 5.1 8.4 -4.4
v 4.9 8.4 -4.5
v 5.1 8.4 -4.5
v 4.8 8.5 -4.4
v 4.9 8.5 -4.4
v 5.1 8.5 -4.4
v 5.2 8.5 -4.4
v 4.8 8.5 -4.5
v 4.9 8.5 -4.5
v 5.1 8.5 -4.5
v 5.2 8.5 -4.5
v 4.7 8.6 -4.4
v 4.8 8.6 -4.4
v 5.2 8.6 -4.4
v 5.3 8.6 -4.4
v 4.7 8.6 -4.5
v 4.8 8.6 -4.5
v 5.2 8.6 -4.5
v 5.3 8.6 -4.5
v 4.6 8.7 -4.4
v 4.7 8.7 -4.4
v 5.3 8.7 -4.4
v 5.4 8.7 -4.4
v 4.6 8.7 -4.5
v 4.7 8.7 -4.5
v 5.3 8.7 -4.5
v 5.4 8.7 -4.5
v 4.5 8.8 -4.4
v 4.6 8.8 -4.4
v 5.4 8.8 -4.4
v 5.5 8.8 -4.4
v 4.5 8.8 -4.5
v 4.6 8.8 -4.5
v 5.4 8.8 -4.5
v 5.5 8.8 -4.5
v 4 9.1 -4.8
v 4.1 9.1 -4.8
v 5.9 9.1 -4.8
v 6 9.1 -4.8
v 4 9.1 -5.3
v 4.1 9.1 -5.3
v 5.9 9.1 -5.3
v 6 9.1 -5.3
v 4.3 9.7 -4.4
v 5.7 9.7 -4.4
v 4.3 9.7 -4.5
v 5.7 9.7 -4.5
v 4 9.7 -4.7
v 4.1 9.7 -4.7
v 5.9 9.7 -4.7
v 6 9.7 -4.7
v 4 9.7 -5.4
v 4.1 9.7 -5.4
v 5.9 9.7 -5.4
v 6 9.7 -5.4
v 4.3 9.7 -5.6
v 5.7 9.7 -5.6
v 4.3 9.7 -5.7
v 5.7 9.7 -5.7
v 4.1 9.8 -4.5
v 5.9 9.8 -4.5
v 4.1 9.8 -5.6
v 5.9 9.8 -5.6

# faces
f 3/1/1 2/1/1 1/1/1
f 4/1/1 2/1/1 3/1/1
f 5/1/1 3/1/1 1/1/1
f 6/1/1 2/1/1 4/1/1
f 7/1/1 5/1/1 1/1/1
f 7/1/1 6/1/1 5/1/1
f 8/1/1 2/1/1 6/1/1
f 8/1/1 6/1/1 7/1/1
f 15/2/1 14/2/1 13/2/1
f 16/2/1 14/2/1 15/2/1
f 17/1/1 10/1/1 9/1/1
f 18/1/1 12/1/1 11/1/1
f 19/1/1 17/1/1 9/1/1
f 19/1/1 18/1/1 17/1/1
f 20/1/1 12/1/1 18/1/1
f 20/1/1 18/1/1 19/1/1
f 25/1/1 22/1/1 21/1/1
f 26/1/1 22/1/1 25/1/1
f 27/1/1 24/1/1 23/1/1
f 28/1/1 24/1/1 27/1/1
f 31/1/1 30/1/1 29/1/1
f 32/1/1 30/1/1 31/1/1
f 35/1/1 34/1/1 33/1/1
f 36/1/1 34/1/1 35/1/1
f 39/1/1 38/1/1 37/1/1
f 40/1/1 38/1/1 39/1/1
f 43/1/1 42/1/1 41/1/1
f 44/1/1 42/1/1 43/1/1
f 47/1/1 46/1/1 45/1/1
f 48/1/1 46/1/1 47/1/1
f 51/1/1 50/1/1 49/1/1
f 52/1/1 50/1/1 51/1/1
f 55/1/1 54/1/1 53/1/1
f 56/1/1 54/1/1 55/1/1
f 57/1/2 58/1/2 59/1/2
f 59/1/2 58/1/2 60/1/2
f 61/1/2 62/1/2 63/1/2
f 63/1/2 62/1/2 64/1/2
f 65/1/2 66/1/2 67/1/2
f 67/1/2 66/1/2 68/1/2
f 69/1/2 70/1/2 71/1/2
f 71/1/2 70/1/2 72/1/2
f 73/1/2 74/1/2 75/1/2
f 75/1/2 74/1/2 76/1/2
f 77/1/2 78/1/2 79/1/2
f 79/1/2 78/1/2 80/1/2
f 81/1/2 82/1/2 83/1/2
f 83/1/2 82/1/2 84/1/2
f 85/1/2 86/1/2 89/1/2
f 89/1/2 86/1/2 90/1/2
f 87/1/2 88/1/2 91/1/2
f 91/1/2 88/1/2 92/1/2
f 97/2/2 98/2/2 99/2/2
f 99/2/2 98/2/2 100/2/2
f 93/1/2 94/1/2 101/1/2
f 95/1/2 96/1/2 102/1/2
f 93/1/2 101/1/2 103/1/2
f 101/1/2 102/1/2 103/1/2
f 102/1/2 96/1/2 104/1/2
f 103/1/2 102/1/2 104/1/2
f 105/1/2 106/1/2 107/1/2
f 107/1/2 106/1/2 108/1/2
f 105/1/2 107/1/2 109/1/2
f 108/1/2 106/1/2 110/1/2
f 105/1/2 109/1/2 111/1/2
f 109/1/2 110/1/2 111/1/2
f 110/1/2 106/1/2 112/1/2
f 111/1/2 110/1/2 112/1/2
f 115/1/3 114/1/3 113/1/3
f 116/1/3 114/1/3 115/1/3
f 117/1/3 115/1/3 113/1/3
f 118/1/3 115/1/3 117/1/3
f 119/1/3 114/1/3 116/1/3
f 120/1/3 114/1/3 119/1/3
f 121/1/3 117/1/3 113/1/3
f 122/1/3 117/1/3 121/1/3
f 123/1/3 121/1/3 113/1/3
f 124/1/3 121/1/3 123/1/3
f 125/1/3 123/1/3 113/1/3
f 126/1/3 123/1/3 125/1/3
f 128/1/3 114/1/3 120/1/3
f 129/1/3 125/1/3 113/1/3
f 131/1/3 128/1/3 127/1/3
f 132/1/3 114/1/3 128/1/3
f 132/1/3 128/1/3 131/1/3
f 133/1/3 130/1/3 129/1/3
f 135/1/3 134/1/3 133/1/3
f 137/1/3 136/1/3 135/1/3
f 140/1/3 114/1/3 132/1/3
f 141/1/3 138/1/3 137/1/3
f 142/1/3 140/1/3 139/1/3
f 143/1/3 141/1/3 137/1/3
f 143/1/3 142/1/3 141/1/3
f 143/1/3 129/1/3 113/1/3
f 143/1/3 133/1/3 129/1/3
f 143/1/3 135/1/3 133/1/3
f 143/1/3 137/1/3 135/1/3
f 144/1/3 140/1/3 142/1/3
f 144/1/3 142/1/3 143/1/3
f 144/1/3 114/1/3 140/1/3
f 147/1/3 146/1/3 145/1/3
f 148/1/3 146/1/3 147/1/3
f 152/2/3 150/2/3 149/2/3
f 153/2/3 150/2/3 152/2/3
f 156/2/3 152/2/3 151/2/3
f 156/2/3 154/2/3 153/2/3
f 156/2/3 153/2/3 152/2/3
f 158/2/3 156/2/3 155/2/3
f 160/2/3 158/2/3 157/2/3
f 161/2/3 154/2/3 156/2/3
f 161/2/3 156/2/3 158/2/3
f 161/2/3 158/2/3 160/2/3
f 162/2/3 154/2/3 161/2/3
f 163/2/3 160/2/3 159/2/3
f 163/2/3 161/2/3 160/2/3
f 164/2/3 161/2/3 163/2/3
f 165/2/3 161/2/3 164/2/3
f 167/2/3 166/2/3 165/2/3
f 167/2/3 165/2/3 164/2/3
f 168/2/3 166/2/3 167/2/3
f 169/2/3 166/2/3 168/2/3
f 170/2/3 166/2/3 169/2/3
f 171/2/3 166/2/3 170/2/3
f 172/2/3 166/2/3 171/2/3
f 173/2/3 166/2/3 172/2/3
f 174/2/3 166/2/3 173/2/3
f 175/2/3 173/2/3 172/2/3
f 176/2/3 173/2/3 175/2/3
f 178/1/3 146/1/3 148/1/3
f 179/1/3 178/1/3 177/1/3
f 180/1/3 146/1/3 178/1/3
f 180/1/3 178/1/3 179/1/3
f 183/1/3 182/1/3 181/1/3
f 184/1/3 182/1/3 183/1/3
f 187/1/3 186/1/3 185/1/3
f 188/1/3 186/1/3 187/1/3
f 191/1/3 190/1/3 189/1/3
f 192/1/3 190/1/3 191/1/3
f 195/1/3 194/1/3 193/1/3
f 196/1/3 194/1/3 195/1/3
f 197/1/4 198/1/4 199/1/4
f 199/1/4 198/1/4 200/1/4
f 201/1/4 202/1/4 203/1/4
f 203/1/4 202/1/4 204/1/4
f 205/1/4 206/1/4 207/1/4
f 207/1/4 206/1/4 208/1/4
f 209/1/4 210/1/4 211/1/4
f 211/1/4 210/1/4 212/1/4
f 213/1/4 214/1/4 215/1/4
f 215/1/4 214/1/4 216/1/4
f 216/1/4 214/1/4 218/1/4
f 217/1/4 218/1/4 219/1/4
f 218/1/4 214/1/4 220/1/4
f 219/1/4 218/1/4 220/1/4
f 221/1/4 222/1/4 223/1/4
f 223/1/4 222/1/4 224/1/4
f 228/1/5 226/1/5 225/1/5
f 229/1/5 226/1/5 228/1/5
f 232/1/5 228/1/5 227/1/5
f 232/1/5 230/1/5 229/1/5
f 232/1/5 229/1/5 228/1/5
f 233/1/5 230/1/5 232/1/5
f 235/1/5 232/1/5 231/1/5
f 235/1/5 234/1/5 233/1/5
f 235/1/5 233/1/5 232/1/5
f 236/1/5 234/1/5 235/1/5
f 237/1/5 234/1/5 236/1/5
f 238/1/5 234/1/5 237/1/5
f 239/1/5 237/1/5 236/1/5
f 240/1/5 237/1/5 239/1/5
f 241/1/5 237/1/5 240/1/5
f 242/1/5 237/1/5 241/1/5
f 243/1/5 241/1/5 240/1/5
f 244/1/5 241/1/5 243/1/5
f 247/1/5 246/1/5 245/1/5
f 248/1/5 246/1/5 247/1/5
f 253/1/5 250/1/5 249/1/5
f 254/1/5 250/1/5 253/1/5
f 255/1/5 252/1/5 251/1/5
f 256/1/5 252/1/5 255/1/5
f 261/1/5 258/1/5 257/1/5
f 262/1/5 258/1/5 261/1/5
f 263/1/5 260/1/5 259/1/5
f 264/1/5 260/1/5 263/1/5
f 269/1/5 266/1/5 265/1/5
f 270/1/5 266/1/5 269/1/5
f 271/1/5 268/1/5 267/1/5
f 272/1/5 268/1/5 271/1/5
f 273/1/6 274/1/6 275/1/6
f 275/1/6 274/1/6 276/1/6
f 277/1/6 278/1/6 281/1/6
f 281/1/6 278/1/6 282/1/6
f 279/1/6 280/1/6 283/1/6
f 283/1/6 280/1/6 284/1/6
f 285/1/6 286/1/6 289/1/6
f 289/1/6 286/1/6 290/1/6
f 287/1/6 288/1/6 291/1/6
f 291/1/6 288/1/6 292/1/6
f 293/1/6 294/1/6 297/1/6
f 297/1/6 294/1/6 298/1/6
f 295/1/6 296/1/6 299/1/6
f 299/1/6 296/1/6 300/1/6
f 301/1/6 302/1/6 305/1/6
f 305/1/6 302/1/6 306/1/6
f 303/1/6 304/1/6 307/1/6
f 307/1/6 304/1/6 308/1/6
f 309/1/6 310/1/6 313/1/6
f 313/1/6 310/1/6 314/1/6
f 311/1/6 312/1/6 315/1/6
f 315/1/6 312/1/6 316/1/6
f 317/1/6 318/1/6 319/1/6
f 319/1/6 318/1/6 320/1/6
f 321/1/6 322/1/6 325/1/6
f 325/1/6 322/1/6 326/1/6
f 323/1/6 324/1/6 327/1/6
f 327/1/6 324/1/6 328/1/6
f 329/1/6 330/1/6 331/1/6
f 331/1/6 330/1/6 332/1/6
f 333/1/6 334/1/6 335/1/6
f 335/1/6 334/1/6 336/1/6
