# MagicaVoxel @ Ephtracy

# group
o 

# material
mtllib GGJ torch.mtl
usemtl palette

# normals
vn -1 0 0
vn 1 0 0
vn 0 0 1
vn 0 0 -1
vn 0 -1 0
vn 0 1 0

# texcoords
vt 0.220703 0.5
vt 0.224609 0.5
vt 0.228516 0.5
vt 0.263672 0.5

# verts
v 4.3 6.1 -5.3
v 4.3 6.1 -5.4
v 4.3 7.5 -5.3
v 4.3 7.5 -5.4
v 4.7 6.6 -4.7
v 4.7 6.6 -5.3
v 4.7 6.8 -4.7
v 4.7 6.8 -5.3
v 4.8 6.4 -4.9
v 4.8 6.4 -5.1
v 4.8 6.6 -4.9
v 4.8 6.6 -5.1
v 4.8 6.8 -4.9
v 4.8 6.8 -5.1
v 4.8 7.2 -4.9
v 4.8 7.2 -5.1
v 4.9 6.1 -4.9
v 4.9 6.1 -5.1
v 4.9 6.4 -4.8
v 4.9 6.4 -4.9
v 4.9 6.4 -5.1
v 4.9 6.4 -5.2
v 4.9 6.6 -4.8
v 4.9 6.6 -4.9
v 4.9 6.6 -5.1
v 4.9 6.6 -5.2
v 4.9 6.8 -4.8
v 4.9 6.8 -4.9
v 4.9 6.8 -5.1
v 4.9 6.8 -5.2
v 4.9 7.2 -4.8
v 4.9 7.2 -4.9
v 4.9 7.2 -5.1
v 4.9 7.2 -5.2
v 5.1 6.1 -4.9
v 5.1 6.1 -5.1
v 5.1 6.4 -4.8
v 5.1 6.4 -4.9
v 5.1 6.4 -5.1
v 5.1 6.4 -5.2
v 5.1 6.6 -4.8
v 5.1 6.6 -4.9
v 5.1 6.6 -5.1
v 5.1 6.6 -5.2
v 5.1 6.8 -4.8
v 5.1 6.8 -4.9
v 5.1 6.8 -5.1
v 5.1 6.8 -5.2
v 5.1 7.2 -4.8
v 5.1 7.2 -4.9
v 5.1 7.2 -5.1
v 5.1 7.2 -5.2
v 5.2 6.4 -4.9
v 5.2 6.4 -5.1
v 5.2 6.6 -4.9
v 5.2 6.6 -5.1
v 5.2 6.8 -4.9
v 5.2 6.8 -5.1
v 5.2 7.2 -4.9
v 5.2 7.2 -5.1
v 5.3 6.6 -4.7
v 5.3 6.6 -5.3
v 5.3 6.8 -4.7
v 5.3 6.8 -5.3
v 5.7 6.1 -5.3
v 5.7 6.1 -5.4
v 5.7 7.5 -5.3
v 5.7 7.5 -5.4
v 4.7 6.6 -4.7
v 4.7 6.8 -4.7
v 5.3 6.6 -4.7
v 5.3 6.8 -4.7
v 4.9 6.4 -4.8
v 4.9 6.6 -4.8
v 4.9 6.8 -4.8
v 4.9 7.2 -4.8
v 5.1 6.4 -4.8
v 5.1 6.6 -4.8
v 5.1 6.8 -4.8
v 5.1 7.2 -4.8
v 4.8 6.4 -4.9
v 4.8 6.6 -4.9
v 4.8 6.8 -4.9
v 4.8 7.2 -4.9
v 4.9 6.1 -4.9
v 4.9 6.4 -4.9
v 4.9 6.6 -4.9
v 4.9 6.8 -4.9
v 4.9 7.2 -4.9
v 5.1 6.1 -4.9
v 5.1 6.4 -4.9
v 5.1 6.6 -4.9
v 5.1 6.8 -4.9
v 5.1 7.2 -4.9
v 5.2 6.4 -4.9
v 5.2 6.6 -4.9
v 5.2 6.8 -4.9
v 5.2 7.2 -4.9
v 4.3 6.1 -5.3
v 4.3 7.5 -5.3
v 4.4 6.1 -5.3
v 4.4 6.2 -5.3
v 4.4 7.4 -5.3
v 4.5 6.3 -5.3
v 4.5 6.4 -5.3
v 4.5 7.2 -5.3
v 4.5 7.3 -5.3
v 4.6 6.3 -5.3
v 4.6 6.4 -5.3
v 4.6 7.2 -5.3
v 4.6 7.3 -5.3
v 4.7 6.6 -5.3
v 4.7 6.8 -5.3
v 5.3 6.6 -5.3
v 5.3 6.8 -5.3
v 5.4 6.3 -5.3
v 5.4 6.4 -5.3
v 5.4 7.2 -5.3
v 5.4 7.3 -5.3
v 5.5 6.3 -5.3
v 5.5 6.4 -5.3
v 5.5 7.2 -5.3
v 5.5 7.3 -5.3
v 5.6 6.2 -5.3
v 5.6 7.4 -5.3
v 5.6 7.5 -5.3
v 5.7 6.1 -5.3
v 5.7 7.5 -5.3
v 4.8 6.4 -5.1
v 4.8 6.6 -5.1
v 4.8 6.8 -5.1
v 4.8 7.2 -5.1
v 4.9 6.1 -5.1
v 4.9 6.4 -5.1
v 4.9 6.6 -5.1
v 4.9 6.8 -5.1
v 4.9 7.2 -5.1
v 5.1 6.1 -5.1
v 5.1 6.4 -5.1
v 5.1 6.6 -5.1
v 5.1 6.8 -5.1
v 5.1 7.2 -5.1
v 5.2 6.4 -5.1
v 5.2 6.6 -5.1
v 5.2 6.8 -5.1
v 5.2 7.2 -5.1
v 4.9 6.4 -5.2
v 4.9 6.6 -5.2
v 4.9 6.8 -5.2
v 4.9 7.2 -5.2
v 5.1 6.4 -5.2
v 5.1 6.6 -5.2
v 5.1 6.8 -5.2
v 5.1 7.2 -5.2
v 4.3 6.1 -5.4
v 4.3 7.5 -5.4
v 4.4 6.1 -5.4
v 4.4 6.2 -5.4
v 4.4 7.4 -5.4
v 4.5 6.3 -5.4
v 4.5 6.4 -5.4
v 4.5 7.2 -5.4
v 4.5 7.3 -5.4
v 4.6 6.3 -5.4
v 4.6 6.4 -5.4
v 4.6 7.2 -5.4
v 4.6 7.3 -5.4
v 5.4 6.3 -5.4
v 5.4 6.4 -5.4
v 5.4 7.2 -5.4
v 5.4 7.3 -5.4
v 5.5 6.3 -5.4
v 5.5 6.4 -5.4
v 5.5 7.2 -5.4
v 5.5 7.3 -5.4
v 5.6 6.2 -5.4
v 5.6 7.4 -5.4
v 5.6 7.5 -5.4
v 5.7 6.1 -5.4
v 5.7 7.5 -5.4
v 4.9 6.1 -4.9
v 5.1 6.1 -4.9
v 4.9 6.1 -5.1
v 5.1 6.1 -5.1
v 4.3 6.1 -5.3
v 4.4 6.1 -5.3
v 5.7 6.1 -5.3
v 4.3 6.1 -5.4
v 4.4 6.1 -5.4
v 5.7 6.1 -5.4
v 4.9 6.4 -4.8
v 5.1 6.4 -4.8
v 4.8 6.4 -4.9
v 4.9 6.4 -4.9
v 5.1 6.4 -4.9
v 5.2 6.4 -4.9
v 4.8 6.4 -5.1
v 4.9 6.4 -5.1
v 5.1 6.4 -5.1
v 5.2 6.4 -5.1
v 4.9 6.4 -5.2
v 5.1 6.4 -5.2
v 4.7 6.6 -4.7
v 5.3 6.6 -4.7
v 4.9 6.6 -4.8
v 5.1 6.6 -4.8
v 4.8 6.6 -4.9
v 4.9 6.6 -4.9
v 5.1 6.6 -4.9
v 5.2 6.6 -4.9
v 4.8 6.6 -5.1
v 4.9 6.6 -5.1
v 5.1 6.6 -5.1
v 5.2 6.6 -5.1
v 4.9 6.6 -5.2
v 5.1 6.6 -5.2
v 4.7 6.6 -5.3
v 5.3 6.6 -5.3
v 4.7 6.8 -4.7
v 5.3 6.8 -4.7
v 4.9 6.8 -4.8
v 5.1 6.8 -4.8
v 4.8 6.8 -4.9
v 4.9 6.8 -4.9
v 5.1 6.8 -4.9
v 5.2 6.8 -4.9
v 4.8 6.8 -5.1
v 4.9 6.8 -5.1
v 5.1 6.8 -5.1
v 5.2 6.8 -5.1
v 4.9 6.8 -5.2
v 5.1 6.8 -5.2
v 4.7 6.8 -5.3
v 5.3 6.8 -5.3
v 4.9 7.2 -4.8
v 5.1 7.2 -4.8
v 4.8 7.2 -4.9
v 4.9 7.2 -4.9
v 5.1 7.2 -4.9
v 5.2 7.2 -4.9
v 4.8 7.2 -5.1
v 4.9 7.2 -5.1
v 5.1 7.2 -5.1
v 5.2 7.2 -5.1
v 4.9 7.2 -5.2
v 5.1 7.2 -5.2
v 4.3 7.5 -5.3
v 5.6 7.5 -5.3
v 5.7 7.5 -5.3
v 4.3 7.5 -5.4
v 5.6 7.5 -5.4
v 5.7 7.5 -5.4

# faces
f 3/2/1 2/2/1 1/2/1
f 4/2/1 2/2/1 3/2/1
f 7/3/1 6/3/1 5/3/1
f 8/3/1 6/3/1 7/3/1
f 11/4/1 10/4/1 9/4/1
f 12/4/1 10/4/1 11/4/1
f 15/4/1 14/4/1 13/4/1
f 16/4/1 14/4/1 15/4/1
f 20/4/1 18/4/1 17/4/1
f 21/4/1 18/4/1 20/4/1
f 23/4/1 20/4/1 19/4/1
f 24/4/1 20/4/1 23/4/1
f 25/4/1 22/4/1 21/4/1
f 26/4/1 22/4/1 25/4/1
f 31/4/1 28/4/1 27/4/1
f 32/4/1 28/4/1 31/4/1
f 33/4/1 30/4/1 29/4/1
f 34/4/1 30/4/1 33/4/1
f 35/4/2 36/4/2 38/4/2
f 38/4/2 36/4/2 39/4/2
f 37/4/2 38/4/2 41/4/2
f 41/4/2 38/4/2 42/4/2
f 39/4/2 40/4/2 43/4/2
f 43/4/2 40/4/2 44/4/2
f 45/4/2 46/4/2 49/4/2
f 49/4/2 46/4/2 50/4/2
f 47/4/2 48/4/2 51/4/2
f 51/4/2 48/4/2 52/4/2
f 53/4/2 54/4/2 55/4/2
f 55/4/2 54/4/2 56/4/2
f 57/4/2 58/4/2 59/4/2
f 59/4/2 58/4/2 60/4/2
f 61/3/2 62/3/2 63/3/2
f 63/3/2 62/3/2 64/3/2
f 65/3/2 66/3/2 67/3/2
f 67/3/2 66/3/2 68/3/2
f 71/3/3 70/3/3 69/3/3
f 72/3/3 70/3/3 71/3/3
f 77/4/3 74/4/3 73/4/3
f 78/4/3 74/4/3 77/4/3
f 79/4/3 76/4/3 75/4/3
f 80/4/3 76/4/3 79/4/3
f 86/4/3 82/4/3 81/4/3
f 87/4/3 82/4/3 86/4/3
f 88/4/3 84/4/3 83/4/3
f 89/4/3 84/4/3 88/4/3
f 90/4/3 86/4/3 85/4/3
f 91/4/3 86/4/3 90/4/3
f 95/4/3 92/4/3 91/4/3
f 96/4/3 92/4/3 95/4/3
f 97/4/3 94/4/3 93/4/3
f 98/4/3 94/4/3 97/4/3
f 101/2/3 100/2/3 99/2/3
f 102/2/3 100/2/3 101/2/3
f 103/2/3 100/2/3 102/2/3
f 104/1/3 103/1/3 102/1/3
f 105/1/3 103/1/3 104/1/3
f 106/1/3 103/1/3 105/1/3
f 107/1/3 103/1/3 106/1/3
f 108/1/3 104/1/3 102/1/3
f 108/2/3 105/2/3 104/2/3
f 109/1/3 106/1/3 105/1/3
f 109/2/3 105/2/3 108/2/3
f 110/2/3 107/2/3 106/2/3
f 110/1/3 106/1/3 109/1/3
f 111/1/3 103/1/3 107/1/3
f 111/2/3 107/2/3 110/2/3
f 112/1/3 110/1/3 109/1/3
f 112/1/3 109/1/3 108/1/3
f 112/1/3 111/1/3 110/1/3
f 113/1/3 111/1/3 112/1/3
f 114/1/3 112/1/3 108/1/3
f 115/1/3 111/1/3 113/1/3
f 116/1/3 108/1/3 102/1/3
f 116/1/3 115/1/3 114/1/3
f 116/1/3 114/1/3 108/1/3
f 117/1/3 115/1/3 116/1/3
f 118/1/3 111/1/3 115/1/3
f 118/1/3 115/1/3 117/1/3
f 119/1/3 103/1/3 111/1/3
f 119/1/3 111/1/3 118/1/3
f 120/3/3 117/3/3 116/3/3
f 120/1/3 116/1/3 102/1/3
f 121/1/3 118/1/3 117/1/3
f 121/3/3 117/3/3 120/3/3
f 122/2/3 119/2/3 118/2/3
f 122/1/3 118/1/3 121/1/3
f 123/1/3 103/1/3 119/1/3
f 123/2/3 119/2/3 122/2/3
f 124/3/3 102/3/3 101/3/3
f 124/1/3 120/1/3 102/1/3
f 124/1/3 123/1/3 122/1/3
f 124/1/3 121/1/3 120/1/3
f 124/1/3 122/1/3 121/1/3
f 125/1/3 103/1/3 123/1/3
f 125/1/3 123/1/3 124/1/3
f 125/2/3 100/2/3 103/2/3
f 126/2/3 100/2/3 125/2/3
f 127/3/3 124/3/3 101/3/3
f 127/3/3 125/3/3 124/3/3
f 127/3/3 126/3/3 125/3/3
f 128/3/3 126/3/3 127/3/3
f 129/4/4 130/4/4 134/4/4
f 134/4/4 130/4/4 135/4/4
f 131/4/4 132/4/4 136/4/4
f 136/4/4 132/4/4 137/4/4
f 133/4/4 134/4/4 138/4/4
f 138/4/4 134/4/4 139/4/4
f 139/4/4 140/4/4 143/4/4
f 143/4/4 140/4/4 144/4/4
f 141/4/4 142/4/4 145/4/4
f 145/4/4 142/4/4 146/4/4
f 147/4/4 148/4/4 151/4/4
f 151/4/4 148/4/4 152/4/4
f 149/4/4 150/4/4 153/4/4
f 153/4/4 150/4/4 154/4/4
f 155/2/4 156/2/4 157/2/4
f 157/2/4 156/2/4 158/2/4
f 158/2/4 156/2/4 159/2/4
f 158/1/4 159/1/4 160/1/4
f 160/1/4 159/1/4 161/1/4
f 161/1/4 159/1/4 162/1/4
f 162/1/4 159/1/4 163/1/4
f 158/1/4 160/1/4 164/1/4
f 160/2/4 161/2/4 164/2/4
f 161/1/4 162/1/4 165/1/4
f 164/2/4 161/2/4 165/2/4
f 162/2/4 163/2/4 166/2/4
f 165/1/4 162/1/4 166/1/4
f 163/1/4 159/1/4 167/1/4
f 166/2/4 163/2/4 167/2/4
f 165/1/4 166/1/4 168/1/4
f 164/1/4 165/1/4 168/1/4
f 166/1/4 167/1/4 168/1/4
f 158/1/4 164/1/4 168/1/4
f 168/1/4 167/1/4 169/1/4
f 169/1/4 167/1/4 170/1/4
f 167/1/4 159/1/4 171/1/4
f 170/1/4 167/1/4 171/1/4
f 158/1/4 168/1/4 172/1/4
f 168/3/4 169/3/4 172/3/4
f 169/1/4 170/1/4 173/1/4
f 172/3/4 169/3/4 173/3/4
f 170/2/4 171/2/4 174/2/4
f 173/1/4 170/1/4 174/1/4
f 171/1/4 159/1/4 175/1/4
f 174/2/4 171/2/4 175/2/4
f 157/3/4 158/3/4 176/3/4
f 158/1/4 172/1/4 176/1/4
f 174/1/4 175/1/4 176/1/4
f 172/1/4 173/1/4 176/1/4
f 173/1/4 174/1/4 176/1/4
f 175/1/4 159/1/4 177/1/4
f 176/1/4 175/1/4 177/1/4
f 159/2/4 156/2/4 177/2/4
f 177/2/4 156/2/4 178/2/4
f 157/3/4 176/3/4 179/3/4
f 176/3/4 177/3/4 179/3/4
f 177/3/4 178/3/4 179/3/4
f 179/3/4 178/3/4 180/3/4
f 183/4/5 182/4/5 181/4/5
f 184/4/5 182/4/5 183/4/5
f 188/2/5 186/2/5 185/2/5
f 189/3/5 187/3/5 186/3/5
f 189/2/5 186/2/5 188/2/5
f 190/3/5 187/3/5 189/3/5
f 194/4/5 192/4/5 191/4/5
f 195/4/5 192/4/5 194/4/5
f 197/4/5 194/4/5 193/4/5
f 198/4/5 194/4/5 197/4/5
f 199/4/5 196/4/5 195/4/5
f 200/4/5 196/4/5 199/4/5
f 201/4/5 199/4/5 198/4/5
f 202/4/5 199/4/5 201/4/5
f 205/3/5 204/3/5 203/3/5
f 206/3/5 204/3/5 205/3/5
f 207/3/5 205/3/5 203/3/5
f 208/3/5 205/3/5 207/3/5
f 209/3/5 204/3/5 206/3/5
f 210/3/5 204/3/5 209/3/5
f 211/3/5 207/3/5 203/3/5
f 214/3/5 204/3/5 210/3/5
f 215/3/5 212/3/5 211/3/5
f 216/3/5 214/3/5 213/3/5
f 217/3/5 215/3/5 211/3/5
f 217/3/5 216/3/5 215/3/5
f 217/3/5 211/3/5 203/3/5
f 218/3/5 214/3/5 216/3/5
f 218/3/5 216/3/5 217/3/5
f 218/3/5 204/3/5 214/3/5
f 219/3/6 220/3/6 221/3/6
f 221/3/6 220/3/6 222/3/6
f 219/3/6 221/3/6 223/3/6
f 223/3/6 221/3/6 224/3/6
f 222/3/6 220/3/6 225/3/6
f 225/3/6 220/3/6 226/3/6
f 219/3/6 223/3/6 227/3/6
f 226/3/6 220/3/6 230/3/6
f 227/3/6 228/3/6 231/3/6
f 229/3/6 230/3/6 232/3/6
f 227/3/6 231/3/6 233/3/6
f 231/3/6 232/3/6 233/3/6
f 219/3/6 227/3/6 233/3/6
f 232/3/6 230/3/6 234/3/6
f 233/3/6 232/3/6 234/3/6
f 230/3/6 220/3/6 234/3/6
f 235/4/6 236/4/6 238/4/6
f 238/4/6 236/4/6 239/4/6
f 237/4/6 238/4/6 241/4/6
f 239/4/6 240/4/6 241/4/6
f 238/4/6 239/4/6 241/4/6
f 241/4/6 240/4/6 242/4/6
f 242/4/6 240/4/6 243/4/6
f 243/4/6 240/4/6 244/4/6
f 242/4/6 243/4/6 245/4/6
f 245/4/6 243/4/6 246/4/6
f 247/2/6 248/2/6 250/2/6
f 248/3/6 249/3/6 251/3/6
f 250/2/6 248/2/6 251/2/6
f 251/3/6 249/3/6 252/3/6
