# MagicaVoxel @ Ephtracy

# group
o 

# material
mtllib GGJ torch flame.mtl
usemtl palette

# normals
vn -1 0 0
vn 1 0 0
vn 0 0 1
vn 0 0 -1
vn 0 -1 0
vn 0 1 0

# texcoords
vt 0.146484 0.5
vt 0.150391 0.5
vt 0.154297 0.5

# verts
v 4.6 7.6 -5
v 4.6 7.6 -5.1
v 4.6 7.7 -5
v 4.6 7.7 -5.1
v 4.8 7.2 -4.9
v 4.8 7.2 -5.1
v 4.8 7.3 -4.9
v 4.8 7.3 -5.1
v 4.8 7.4 -4.9
v 4.8 7.4 -5.1
v 4.8 7.6 -4.9
v 4.8 7.6 -5.1
v 4.9 7.2 -4.8
v 4.9 7.2 -4.9
v 4.9 7.2 -5.1
v 4.9 7.2 -5.2
v 4.9 7.3 -4.8
v 4.9 7.3 -4.9
v 4.9 7.3 -5.1
v 4.9 7.3 -5.2
v 4.9 7.4 -4.8
v 4.9 7.4 -4.9
v 4.9 7.4 -5.1
v 4.9 7.4 -5.2
v 4.9 7.6 -4.8
v 4.9 7.6 -4.9
v 4.9 7.6 -5.1
v 4.9 7.6 -5.2
v 4.9 7.8 -4.7
v 4.9 7.8 -4.8
v 4.9 7.9 -4.7
v 4.9 7.9 -4.8
v 5 7.3 -4.6
v 5 7.3 -4.7
v 5 7.4 -4.6
v 5 7.4 -4.7
v 5.3 7.5 -4.9
v 5.3 7.5 -5
v 5.3 7.7 -4.9
v 5.3 7.7 -5
v 4.7 7.6 -5
v 4.7 7.6 -5.1
v 4.7 7.7 -5
v 4.7 7.7 -5.1
v 5 7.8 -4.7
v 5 7.8 -4.8
v 5 7.9 -4.7
v 5 7.9 -4.8
v 5.1 7.2 -4.8
v 5.1 7.2 -4.9
v 5.1 7.2 -5.1
v 5.1 7.2 -5.2
v 5.1 7.3 -4.6
v 5.1 7.3 -4.7
v 5.1 7.3 -4.8
v 5.1 7.3 -4.9
v 5.1 7.3 -5.1
v 5.1 7.3 -5.2
v 5.1 7.4 -4.6
v 5.1 7.4 -4.7
v 5.1 7.4 -4.8
v 5.1 7.4 -4.9
v 5.1 7.4 -5.1
v 5.1 7.4 -5.2
v 5.1 7.6 -4.8
v 5.1 7.6 -4.9
v 5.1 7.6 -5.1
v 5.1 7.6 -5.2
v 5.2 7.2 -4.9
v 5.2 7.2 -5.1
v 5.2 7.3 -4.9
v 5.2 7.3 -5.1
v 5.2 7.4 -4.9
v 5.2 7.4 -5.1
v 5.2 7.6 -4.9
v 5.2 7.6 -5.1
v 5.4 7.5 -4.9
v 5.4 7.5 -5
v 5.4 7.7 -4.9
v 5.4 7.7 -5
v 5 7.3 -4.6
v 5 7.4 -4.6
v 5.1 7.3 -4.6
v 5.1 7.4 -4.6
v 4.9 7.8 -4.7
v 4.9 7.9 -4.7
v 5 7.8 -4.7
v 5 7.9 -4.7
v 4.9 7.2 -4.8
v 4.9 7.3 -4.8
v 4.9 7.4 -4.8
v 4.9 7.6 -4.8
v 5.1 7.2 -4.8
v 5.1 7.3 -4.8
v 5.1 7.4 -4.8
v 5.1 7.6 -4.8
v 4.8 7.2 -4.9
v 4.8 7.3 -4.9
v 4.8 7.4 -4.9
v 4.8 7.6 -4.9
v 4.9 7.2 -4.9
v 4.9 7.3 -4.9
v 4.9 7.4 -4.9
v 4.9 7.6 -4.9
v 5.1 7.2 -4.9
v 5.1 7.3 -4.9
v 5.1 7.4 -4.9
v 5.1 7.6 -4.9
v 5.2 7.2 -4.9
v 5.2 7.3 -4.9
v 5.2 7.4 -4.9
v 5.2 7.6 -4.9
v 5.3 7.5 -4.9
v 5.3 7.7 -4.9
v 5.4 7.5 -4.9
v 5.4 7.7 -4.9
v 4.6 7.6 -5
v 4.6 7.7 -5
v 4.7 7.6 -5
v 4.7 7.7 -5
v 5 7.3 -4.7
v 5 7.4 -4.7
v 5.1 7.3 -4.7
v 5.1 7.4 -4.7
v 4.9 7.8 -4.8
v 4.9 7.9 -4.8
v 5 7.8 -4.8
v 5 7.9 -4.8
v 5.3 7.5 -5
v 5.3 7.7 -5
v 5.4 7.5 -5
v 5.4 7.7 -5
v 4.6 7.6 -5.1
v 4.6 7.7 -5.1
v 4.7 7.6 -5.1
v 4.7 7.7 -5.1
v 4.8 7.2 -5.1
v 4.8 7.3 -5.1
v 4.8 7.4 -5.1
v 4.8 7.6 -5.1
v 4.9 7.2 -5.1
v 4.9 7.3 -5.1
v 4.9 7.4 -5.1
v 4.9 7.6 -5.1
v 5.1 7.2 -5.1
v 5.1 7.3 -5.1
v 5.1 7.4 -5.1
v 5.1 7.6 -5.1
v 5.2 7.2 -5.1
v 5.2 7.3 -5.1
v 5.2 7.4 -5.1
v 5.2 7.6 -5.1
v 4.9 7.2 -5.2
v 4.9 7.3 -5.2
v 4.9 7.4 -5.2
v 4.9 7.6 -5.2
v 5.1 7.2 -5.2
v 5.1 7.3 -5.2
v 5.1 7.4 -5.2
v 5.1 7.6 -5.2
v 4.9 7.2 -4.8
v 5.1 7.2 -4.8
v 4.8 7.2 -4.9
v 4.9 7.2 -4.9
v 5.1 7.2 -4.9
v 5.2 7.2 -4.9
v 4.8 7.2 -5.1
v 4.9 7.2 -5.1
v 5.1 7.2 -5.1
v 5.2 7.2 -5.1
v 4.9 7.2 -5.2
v 5.1 7.2 -5.2
v 5 7.3 -4.6
v 5.1 7.3 -4.6
v 5 7.3 -4.7
v 5.1 7.3 -4.7
v 5.3 7.5 -4.9
v 5.4 7.5 -4.9
v 5.3 7.5 -5
v 5.4 7.5 -5
v 4.6 7.6 -5
v 4.7 7.6 -5
v 4.6 7.6 -5.1
v 4.7 7.6 -5.1
v 4.9 7.8 -4.7
v 5 7.8 -4.7
v 4.9 7.8 -4.8
v 5 7.8 -4.8
v 5 7.4 -4.6
v 5.1 7.4 -4.6
v 5 7.4 -4.7
v 5.1 7.4 -4.7
v 4.9 7.6 -4.8
v 5.1 7.6 -4.8
v 4.8 7.6 -4.9
v 4.9 7.6 -4.9
v 5.1 7.6 -4.9
v 5.2 7.6 -4.9
v 4.8 7.6 -5.1
v 4.9 7.6 -5.1
v 5.1 7.6 -5.1
v 5.2 7.6 -5.1
v 4.9 7.6 -5.2
v 5.1 7.6 -5.2
v 5.3 7.7 -4.9
v 5.4 7.7 -4.9
v 4.6 7.7 -5
v 4.7 7.7 -5
v 5.3 7.7 -5
v 5.4 7.7 -5
v 4.6 7.7 -5.1
v 4.7 7.7 -5.1
v 4.9 7.9 -4.7
v 5 7.9 -4.7
v 4.9 7.9 -4.8
v 5 7.9 -4.8

# faces
f 3/1/1 2/1/1 1/1/1
f 4/1/1 2/1/1 3/1/1
f 7/2/1 6/2/1 5/2/1
f 8/2/1 6/2/1 7/2/1
f 9/3/1 8/3/1 7/3/1
f 10/3/1 8/3/1 9/3/1
f 11/1/1 10/1/1 9/1/1
f 12/1/1 10/1/1 11/1/1
f 17/2/1 14/2/1 13/2/1
f 18/2/1 14/2/1 17/2/1
f 19/2/1 16/2/1 15/2/1
f 20/2/1 16/2/1 19/2/1
f 21/3/1 18/3/1 17/3/1
f 22/3/1 18/3/1 21/3/1
f 23/3/1 20/3/1 19/3/1
f 24/3/1 20/3/1 23/3/1
f 25/1/1 22/1/1 21/1/1
f 26/1/1 22/1/1 25/1/1
f 27/1/1 24/1/1 23/1/1
f 28/1/1 24/1/1 27/1/1
f 31/1/1 30/1/1 29/1/1
f 32/1/1 30/1/1 31/1/1
f 35/1/1 34/1/1 33/1/1
f 36/1/1 34/1/1 35/1/1
f 39/1/1 38/1/1 37/1/1
f 40/1/1 38/1/1 39/1/1
f 41/1/2 42/1/2 43/1/2
f 43/1/2 42/1/2 44/1/2
f 45/1/2 46/1/2 47/1/2
f 47/1/2 46/1/2 48/1/2
f 49/2/2 50/2/2 55/2/2
f 55/2/2 50/2/2 56/2/2
f 51/2/2 52/2/2 57/2/2
f 57/2/2 52/2/2 58/2/2
f 53/1/2 54/1/2 59/1/2
f 59/1/2 54/1/2 60/1/2
f 55/3/2 56/3/2 61/3/2
f 61/3/2 56/3/2 62/3/2
f 57/3/2 58/3/2 63/3/2
f 63/3/2 58/3/2 64/3/2
f 61/1/2 62/1/2 65/1/2
f 65/1/2 62/1/2 66/1/2
f 63/1/2 64/1/2 67/1/2
f 67/1/2 64/1/2 68/1/2
f 69/2/2 70/2/2 71/2/2
f 71/2/2 70/2/2 72/2/2
f 71/3/2 72/3/2 73/3/2
f 73/3/2 72/3/2 74/3/2
f 73/1/2 74/1/2 75/1/2
f 75/1/2 74/1/2 76/1/2
f 77/1/2 78/1/2 79/1/2
f 79/1/2 78/1/2 80/1/2
f 83/1/3 82/1/3 81/1/3
f 84/1/3 82/1/3 83/1/3
f 87/1/3 86/1/3 85/1/3
f 88/1/3 86/1/3 87/1/3
f 93/2/3 90/2/3 89/2/3
f 94/3/3 91/3/3 90/3/3
f 94/2/3 90/2/3 93/2/3
f 95/1/3 92/1/3 91/1/3
f 95/3/3 91/3/3 94/3/3
f 96/1/3 92/1/3 95/1/3
f 101/2/3 98/2/3 97/2/3
f 102/3/3 99/3/3 98/3/3
f 102/2/3 98/2/3 101/2/3
f 103/1/3 100/1/3 99/1/3
f 103/3/3 99/3/3 102/3/3
f 104/1/3 100/1/3 103/1/3
f 109/2/3 106/2/3 105/2/3
f 110/3/3 107/3/3 106/3/3
f 110/2/3 106/2/3 109/2/3
f 111/1/3 108/1/3 107/1/3
f 111/3/3 107/3/3 110/3/3
f 112/1/3 108/1/3 111/1/3
f 115/1/3 114/1/3 113/1/3
f 116/1/3 114/1/3 115/1/3
f 119/1/3 118/1/3 117/1/3
f 120/1/3 118/1/3 119/1/3
f 121/1/4 122/1/4 123/1/4
f 123/1/4 122/1/4 124/1/4
f 125/1/4 126/1/4 127/1/4
f 127/1/4 126/1/4 128/1/4
f 129/1/4 130/1/4 131/1/4
f 131/1/4 130/1/4 132/1/4
f 133/1/4 134/1/4 135/1/4
f 135/1/4 134/1/4 136/1/4
f 137/2/4 138/2/4 141/2/4
f 138/3/4 139/3/4 142/3/4
f 141/2/4 138/2/4 142/2/4
f 139/1/4 140/1/4 143/1/4
f 142/3/4 139/3/4 143/3/4
f 143/1/4 140/1/4 144/1/4
f 145/2/4 146/2/4 149/2/4
f 146/3/4 147/3/4 150/3/4
f 149/2/4 146/2/4 150/2/4
f 147/1/4 148/1/4 151/1/4
f 150/3/4 147/3/4 151/3/4
f 151/1/4 148/1/4 152/1/4
f 153/2/4 154/2/4 157/2/4
f 154/3/4 155/3/4 158/3/4
f 157/2/4 154/2/4 158/2/4
f 155/1/4 156/1/4 159/1/4
f 158/3/4 155/3/4 159/3/4
f 159/1/4 156/1/4 160/1/4
f 164/2/5 162/2/5 161/2/5
f 165/2/5 162/2/5 164/2/5
f 167/2/5 164/2/5 163/2/5
f 167/2/5 166/2/5 165/2/5
f 167/2/5 165/2/5 164/2/5
f 168/2/5 166/2/5 167/2/5
f 169/2/5 166/2/5 168/2/5
f 170/2/5 166/2/5 169/2/5
f 171/2/5 169/2/5 168/2/5
f 172/2/5 169/2/5 171/2/5
f 175/1/5 174/1/5 173/1/5
f 176/1/5 174/1/5 175/1/5
f 179/1/5 178/1/5 177/1/5
f 180/1/5 178/1/5 179/1/5
f 183/1/5 182/1/5 181/1/5
f 184/1/5 182/1/5 183/1/5
f 187/1/5 186/1/5 185/1/5
f 188/1/5 186/1/5 187/1/5
f 189/1/6 190/1/6 191/1/6
f 191/1/6 190/1/6 192/1/6
f 193/1/6 194/1/6 196/1/6
f 196/1/6 194/1/6 197/1/6
f 195/1/6 196/1/6 199/1/6
f 197/1/6 198/1/6 199/1/6
f 196/1/6 197/1/6 199/1/6
f 199/1/6 198/1/6 200/1/6
f 200/1/6 198/1/6 201/1/6
f 201/1/6 198/1/6 202/1/6
f 200/1/6 201/1/6 203/1/6
f 203/1/6 201/1/6 204/1/6
f 205/1/6 206/1/6 209/1/6
f 209/1/6 206/1/6 210/1/6
f 207/1/6 208/1/6 211/1/6
f 211/1/6 208/1/6 212/1/6
f 213/1/6 214/1/6 215/1/6
f 215/1/6 214/1/6 216/1/6
