# MagicaVoxel @ Ephtracy

# group
o 

# material
mtllib GGJ zombie tentacle arm.mtl
usemtl palette

# normals
vn -1 0 0
vn 1 0 0
vn 0 0 1
vn 0 0 -1
vn 0 -1 0
vn 0 1 0

# texcoords
vt 0.958984 0.5
vt 0.962891 0.5
vt 0.966797 0.5
vt 0.994141 0.5

# verts
v 6 6.1 -4.7
v 6 6.1 -5.5
v 6 6.2 -4.8
v 6 6.2 -5.5
v 6 6.3 -5.2
v 6 6.3 -5.4
v 6 6.4 -5.3
v 6 6.4 -5.4
v 6 6.4 -5.5
v 6 6.5 -5.2
v 6 6.5 -5.3
v 6 6.6 -4.9
v 6 6.6 -5.1
v 6 6.8 -4.9
v 6 6.8 -5.1
v 6 7 -4.8
v 6 7 -5.2
v 6 7.1 -5.1
v 6 7.1 -5.2
v 6 7.4 -4.8
v 6 7.4 -5.1
v 6 8.8 -4.7
v 6 8.8 -4.8
v 6 9.1 -4.8
v 6 9.1 -5.1
v 6 9.5 -4.8
v 6 9.5 -4.9
v 6 9.5 -5.1
v 6 9.5 -5.2
v 6 9.6 -4.7
v 6 9.6 -4.9
v 6 9.6 -5.2
v 6.1 6.1 -4.6
v 6.1 6.1 -4.7
v 6.1 6.1 -5.5
v 6.1 6.1 -5.8
v 6.1 6.2 -5.5
v 6.1 6.2 -5.8
v 6.1 6.3 -5.5
v 6.1 6.3 -5.8
v 6.1 6.5 -4.6
v 6.1 6.5 -4.7
v 6.1 6.6 -4.6
v 6.1 6.6 -4.7
v 6.1 7 -4.6
v 6.1 7 -4.7
v 6.1 7.1 -4.6
v 6.1 7.1 -4.7
v 6.1 7.5 -4.6
v 6.1 7.5 -4.7
v 6.1 7.6 -4.6
v 6.1 7.6 -4.7
v 6.1 8 -4.6
v 6.1 8 -4.7
v 6.1 8.1 -4.6
v 6.1 8.1 -4.7
v 6.1 8.5 -4.6
v 6.1 8.5 -4.7
v 6.1 9.1 -4.8
v 6.1 9.1 -5.1
v 6.1 9.5 -4.8
v 6.1 9.5 -4.9
v 6.1 9.5 -5.1
v 6.3 6.2 -4.6
v 6.3 6.2 -4.7
v 6.3 6.4 -4.6
v 6.3 6.4 -4.7
v 6.3 6.7 -4.6
v 6.3 6.7 -4.7
v 6.3 6.9 -4.6
v 6.3 6.9 -4.7
v 6.3 7.2 -4.6
v 6.3 7.2 -4.7
v 6.3 7.4 -4.6
v 6.3 7.4 -4.7
v 6.3 7.7 -4.6
v 6.3 7.7 -4.7
v 6.3 7.9 -4.6
v 6.3 7.9 -4.7
v 6.3 8.2 -4.6
v 6.3 8.2 -4.7
v 6.3 8.4 -4.6
v 6.3 8.4 -4.7
v 6.2 6.2 -4.6
v 6.2 6.2 -4.7
v 6.2 6.4 -4.6
v 6.2 6.4 -4.7
v 6.2 6.7 -4.6
v 6.2 6.7 -4.7
v 6.2 6.9 -4.6
v 6.2 6.9 -4.7
v 6.2 7.2 -4.6
v 6.2 7.2 -4.7
v 6.2 7.4 -4.6
v 6.2 7.4 -4.7
v 6.2 7.7 -4.6
v 6.2 7.7 -4.7
v 6.2 7.9 -4.6
v 6.2 7.9 -4.7
v 6.2 8.2 -4.6
v 6.2 8.2 -4.7
v 6.2 8.4 -4.6
v 6.2 8.4 -4.7
v 6.3 6.1 -5.5
v 6.3 6.1 -5.8
v 6.3 6.2 -5.5
v 6.3 6.2 -5.8
v 6.3 6.3 -5.5
v 6.3 6.3 -5.8
v 6.4 6.1 -4.6
v 6.4 6.1 -4.7
v 6.4 6.5 -4.6
v 6.4 6.5 -4.7
v 6.4 6.6 -4.6
v 6.4 6.6 -4.7
v 6.4 7 -4.6
v 6.4 7 -4.7
v 6.4 7.1 -4.6
v 6.4 7.1 -4.7
v 6.4 7.5 -4.6
v 6.4 7.5 -4.7
v 6.4 7.6 -4.6
v 6.4 7.6 -4.7
v 6.4 8 -4.6
v 6.4 8 -4.7
v 6.4 8.1 -4.6
v 6.4 8.1 -4.7
v 6.4 8.5 -4.6
v 6.4 8.5 -4.7
v 6.5 6.1 -4.7
v 6.5 6.1 -5.5
v 6.5 6.2 -4.8
v 6.5 6.2 -5.5
v 6.5 6.3 -5.1
v 6.5 6.3 -5.2
v 6.5 6.4 -5.1
v 6.5 6.4 -5.2
v 6.5 6.4 -5.3
v 6.5 6.4 -5.5
v 6.5 6.5 -5.2
v 6.5 6.5 -5.3
v 6.5 6.6 -4.8
v 6.5 6.6 -5.1
v 6.5 6.9 -4.8
v 6.5 6.9 -5.1
v 6.5 7.1 -5
v 6.5 7.1 -5.2
v 6.5 7.3 -5
v 6.5 7.3 -5.2
v 6.5 7.5 -4.8
v 6.5 7.5 -4.9
v 6.5 7.6 -4.8
v 6.5 7.6 -4.9
v 6.5 7.9 -4.9
v 6.5 7.9 -5
v 6.5 8 -4.9
v 6.5 8 -5
v 6.5 8.3 -4.8
v 6.5 8.3 -5
v 6.5 8.5 -4.8
v 6.5 8.5 -5
v 6.5 8.8 -4.7
v 6.5 8.8 -4.8
v 6.5 8.8 -5.1
v 6.5 8.8 -5.2
v 6.5 8.9 -5.1
v 6.5 8.9 -5.2
v 6.5 9 -4.9
v 6.5 9 -5.2
v 6.5 9.4 -4.9
v 6.5 9.4 -5.2
v 6.5 9.6 -4.7
v 6.5 9.6 -5.2
v 6.1 6.1 -4.6
v 6.1 6.5 -4.6
v 6.1 6.6 -4.6
v 6.1 7 -4.6
v 6.1 7.1 -4.6
v 6.1 7.5 -4.6
v 6.1 7.6 -4.6
v 6.1 8 -4.6
v 6.1 8.1 -4.6
v 6.1 8.5 -4.6
v 6.2 6.2 -4.6
v 6.2 6.4 -4.6
v 6.2 6.7 -4.6
v 6.2 6.9 -4.6
v 6.2 7.2 -4.6
v 6.2 7.4 -4.6
v 6.2 7.7 -4.6
v 6.2 7.9 -4.6
v 6.2 8.2 -4.6
v 6.2 8.4 -4.6
v 6.3 6.2 -4.6
v 6.3 6.4 -4.6
v 6.3 6.7 -4.6
v 6.3 6.9 -4.6
v 6.3 7.2 -4.6
v 6.3 7.4 -4.6
v 6.3 7.7 -4.6
v 6.3 7.9 -4.6
v 6.3 8.2 -4.6
v 6.3 8.4 -4.6
v 6.4 6.1 -4.6
v 6.4 6.5 -4.6
v 6.4 6.6 -4.6
v 6.4 7 -4.6
v 6.4 7.1 -4.6
v 6.4 7.5 -4.6
v 6.4 7.6 -4.6
v 6.4 8 -4.6
v 6.4 8.1 -4.6
v 6.4 8.5 -4.6
v 6 6.1 -4.7
v 6 8.8 -4.7
v 6 9.6 -4.7
v 6.1 6.1 -4.7
v 6.1 6.5 -4.7
v 6.1 6.6 -4.7
v 6.1 7 -4.7
v 6.1 7.1 -4.7
v 6.1 7.5 -4.7
v 6.1 7.6 -4.7
v 6.1 8 -4.7
v 6.1 8.1 -4.7
v 6.1 8.5 -4.7
v 6.1 8.8 -4.7
v 6.1 9 -4.7
v 6.2 6.2 -4.7
v 6.2 6.4 -4.7
v 6.2 6.7 -4.7
v 6.2 6.9 -4.7
v 6.2 7.2 -4.7
v 6.2 7.4 -4.7
v 6.2 7.7 -4.7
v 6.2 7.9 -4.7
v 6.2 8.2 -4.7
v 6.2 8.4 -4.7
v 6.2 9 -4.7
v 6.2 9.1 -4.7
v 6.3 6.2 -4.7
v 6.3 6.4 -4.7
v 6.3 6.7 -4.7
v 6.3 6.9 -4.7
v 6.3 7.2 -4.7
v 6.3 7.4 -4.7
v 6.3 7.7 -4.7
v 6.3 7.9 -4.7
v 6.3 8.2 -4.7
v 6.3 8.4 -4.7
v 6.3 9 -4.7
v 6.3 9.1 -4.7
v 6.4 6.1 -4.7
v 6.4 6.5 -4.7
v 6.4 6.6 -4.7
v 6.4 7 -4.7
v 6.4 7.1 -4.7
v 6.4 7.5 -4.7
v 6.4 7.6 -4.7
v 6.4 8 -4.7
v 6.4 8.1 -4.7
v 6.4 8.5 -4.7
v 6.4 8.8 -4.7
v 6.4 9 -4.7
v 6.5 6.1 -4.7
v 6.5 8.8 -4.7
v 6.5 9.6 -4.7
v 6 9.1 -5.1
v 6 9.5 -5.1
v 6.1 9.1 -5.1
v 6.1 9.5 -5.1
v 6 9.1 -4.8
v 6 9.5 -4.8
v 6.1 9.1 -4.8
v 6.1 9.5 -4.8
v 6 6.5 -5.2
v 6 7 -5.2
v 6 7.1 -5.2
v 6 9.5 -5.2
v 6 9.6 -5.2
v 6.1 7 -5.2
v 6.1 7.1 -5.2
v 6.1 7.7 -5.2
v 6.1 8 -5.2
v 6.1 8.6 -5.2
v 6.1 8.7 -5.2
v 6.1 9.3 -5.2
v 6.1 9.4 -5.2
v 6.2 8.6 -5.2
v 6.2 8.7 -5.2
v 6.2 9.3 -5.2
v 6.2 9.4 -5.2
v 6.3 6.5 -5.2
v 6.3 6.6 -5.2
v 6.3 8.1 -5.2
v 6.3 8.2 -5.2
v 6.3 9.5 -5.2
v 6.3 9.6 -5.2
v 6.4 6.5 -5.2
v 6.4 6.6 -5.2
v 6.4 7.1 -5.2
v 6.4 7.3 -5.2
v 6.4 7.7 -5.2
v 6.4 8 -5.2
v 6.4 8.1 -5.2
v 6.4 8.2 -5.2
v 6.4 8.8 -5.2
v 6.4 8.9 -5.2
v 6.4 9 -5.2
v 6.4 9.4 -5.2
v 6.5 6.5 -5.2
v 6.5 7.1 -5.2
v 6.5 7.3 -5.2
v 6.5 8.8 -5.2
v 6.5 8.9 -5.2
v 6.5 9 -5.2
v 6.5 9.4 -5.2
v 6.5 9.6 -5.2
v 6 6.4 -5.3
v 6 6.5 -5.3
v 6.3 6.4 -5.3
v 6.3 6.5 -5.3
v 6.5 6.4 -5.3
v 6.5 6.5 -5.3
v 6 6.1 -5.5
v 6 6.2 -5.5
v 6 6.4 -5.5
v 6.1 6.1 -5.5
v 6.1 6.2 -5.5
v 6.1 6.3 -5.5
v 6.3 6.1 -5.5
v 6.3 6.2 -5.5
v 6.3 6.3 -5.5
v 6.5 6.1 -5.5
v 6.5 6.2 -5.5
v 6.5 6.4 -5.5
v 6.1 6.1 -5.8
v 6.1 6.2 -5.8
v 6.1 6.3 -5.8
v 6.3 6.1 -5.8
v 6.3 6.2 -5.8
v 6.3 6.3 -5.8
v 6.1 6.1 -4.6
v 6.4 6.1 -4.6
v 6 6.1 -4.7
v 6.1 6.1 -4.7
v 6.4 6.1 -4.7
v 6.5 6.1 -4.7
v 6.1 6.1 -4.8
v 6.4 6.1 -4.8
v 6 6.1 -5.5
v 6.1 6.1 -5.5
v 6.3 6.1 -5.5
v 6.5 6.1 -5.5
v 6.1 6.1 -5.8
v 6.3 6.1 -5.8
v 6.2 6.4 -4.6
v 6.3 6.4 -4.6
v 6.2 6.4 -4.7
v 6.3 6.4 -4.7
v 6.1 6.6 -4.6
v 6.4 6.6 -4.6
v 6.1 6.6 -4.7
v 6.4 6.6 -4.7
v 6.2 6.9 -4.6
v 6.3 6.9 -4.6
v 6.2 6.9 -4.7
v 6.3 6.9 -4.7
v 6.1 7.1 -4.6
v 6.4 7.1 -4.6
v 6.1 7.1 -4.7
v 6.4 7.1 -4.7
v 6.2 7.4 -4.6
v 6.3 7.4 -4.6
v 6.2 7.4 -4.7
v 6.3 7.4 -4.7
v 6.1 7.6 -4.6
v 6.4 7.6 -4.6
v 6.1 7.6 -4.7
v 6.4 7.6 -4.7
v 6.2 7.9 -4.6
v 6.3 7.9 -4.6
v 6.2 7.9 -4.7
v 6.3 7.9 -4.7
v 6.1 8.1 -4.6
v 6.4 8.1 -4.6
v 6.1 8.1 -4.7
v 6.4 8.1 -4.7
v 6.2 8.4 -4.6
v 6.3 8.4 -4.6
v 6.2 8.4 -4.7
v 6.3 8.4 -4.7
v 6 9.5 -4.8
v 6.1 9.5 -4.8
v 6 9.5 -4.9
v 6.1 9.5 -4.9
v 6 9.5 -5.1
v 6.1 9.5 -5.1
v 6.2 6.2 -4.6
v 6.3 6.2 -4.6
v 6.2 6.2 -4.7
v 6.3 6.2 -4.7
v 6.1 6.3 -5.5
v 6.3 6.3 -5.5
v 6.1 6.3 -5.8
v 6.3 6.3 -5.8
v 6 6.4 -5.3
v 6.3 6.4 -5.3
v 6.5 6.4 -5.3
v 6 6.4 -5.4
v 6.3 6.4 -5.4
v 6 6.4 -5.5
v 6.5 6.4 -5.5
v 6.1 6.5 -4.6
v 6.4 6.5 -4.6
v 6.1 6.5 -4.7
v 6.4 6.5 -4.7
v 6 6.5 -5.2
v 6.3 6.5 -5.2
v 6.4 6.5 -5.2
v 6.5 6.5 -5.2
v 6 6.5 -5.3
v 6.3 6.5 -5.3
v 6.5 6.5 -5.3
v 6.2 6.7 -4.6
v 6.3 6.7 -4.6
v 6.2 6.7 -4.7
v 6.3 6.7 -4.7
v 6.1 7 -4.6
v 6.4 7 -4.6
v 6.1 7 -4.7
v 6.4 7 -4.7
v 6.2 7.2 -4.6
v 6.3 7.2 -4.6
v 6.2 7.2 -4.7
v 6.3 7.2 -4.7
v 6.1 7.5 -4.6
v 6.4 7.5 -4.6
v 6.1 7.5 -4.7
v 6.4 7.5 -4.7
v 6.2 7.7 -4.6
v 6.3 7.7 -4.6
v 6.2 7.7 -4.7
v 6.3 7.7 -4.7
v 6.1 8 -4.6
v 6.4 8 -4.6
v 6.1 8 -4.7
v 6.4 8 -4.7
v 6.2 8.2 -4.6
v 6.3 8.2 -4.6
v 6.2 8.2 -4.7
v 6.3 8.2 -4.7
v 6.1 8.5 -4.6
v 6.4 8.5 -4.6
v 6.1 8.5 -4.7
v 6.4 8.5 -4.7
v 6 9.1 -4.8
v 6.1 9.1 -4.8
v 6 9.1 -5.1
v 6.1 9.1 -5.1
v 6 9.6 -4.7
v 6.5 9.6 -4.7
v 6 9.6 -4.9
v 6.3 9.6 -4.9
v 6 9.6 -5.2
v 6.3 9.6 -5.2
v 6.5 9.6 -5.2

# faces
f 3/2/1 2/2/1 1/2/1
f 4/2/1 2/2/1 3/2/1
f 5/3/1 4/3/1 3/3/1
f 6/3/1 4/3/1 5/3/1
f 7/1/1 6/1/1 5/1/1
f 8/3/1 4/3/1 6/3/1
f 8/1/1 6/1/1 7/1/1
f 9/3/1 4/3/1 8/3/1
f 10/3/1 5/3/1 3/3/1
f 10/1/1 7/1/1 5/1/1
f 11/1/1 7/1/1 10/1/1
f 12/3/1 10/3/1 3/3/1
f 13/3/1 10/3/1 12/3/1
f 14/3/1 12/3/1 3/3/1
f 14/1/1 13/1/1 12/1/1
f 15/3/1 10/3/1 13/3/1
f 15/1/1 13/1/1 14/1/1
f 16/2/1 3/2/1 1/2/1
f 16/3/1 14/3/1 3/3/1
f 16/3/1 15/3/1 14/3/1
f 17/3/1 10/3/1 15/3/1
f 17/3/1 15/3/1 16/3/1
f 18/1/1 17/1/1 16/1/1
f 19/1/1 17/1/1 18/1/1
f 20/2/1 16/2/1 1/2/1
f 20/1/1 18/1/1 16/1/1
f 21/3/1 19/3/1 18/3/1
f 21/1/1 18/1/1 20/1/1
f 22/2/1 20/2/1 1/2/1
f 23/3/1 21/3/1 20/3/1
f 23/2/1 20/2/1 22/2/1
f 24/3/1 23/3/1 22/3/1
f 24/3/1 21/3/1 23/3/1
f 25/3/1 19/3/1 21/3/1
f 25/3/1 21/3/1 24/3/1
f 26/3/1 24/3/1 22/3/1
f 28/3/1 19/3/1 25/3/1
f 29/3/1 19/3/1 28/3/1
f 30/3/1 27/3/1 26/3/1
f 30/3/1 26/3/1 22/3/1
f 31/1/1 29/1/1 28/1/1
f 31/3/1 27/3/1 30/3/1
f 31/1/1 28/1/1 27/1/1
f 32/1/1 29/1/1 31/1/1
f 37/2/1 36/2/1 35/2/1
f 38/2/1 36/2/1 37/2/1
f 39/3/1 38/3/1 37/3/1
f 40/3/1 38/3/1 39/3/1
f 41/3/1 34/3/1 33/3/1
f 42/3/1 34/3/1 41/3/1
f 45/3/1 44/3/1 43/3/1
f 46/3/1 44/3/1 45/3/1
f 49/3/1 48/3/1 47/3/1
f 50/3/1 48/3/1 49/3/1
f 53/3/1 52/3/1 51/3/1
f 54/3/1 52/3/1 53/3/1
f 57/3/1 56/3/1 55/3/1
f 58/3/1 56/3/1 57/3/1
f 61/4/1 60/4/1 59/4/1
f 62/4/1 60/4/1 61/4/1
f 63/4/1 60/4/1 62/4/1
f 66/3/1 65/3/1 64/3/1
f 67/3/1 65/3/1 66/3/1
f 70/3/1 69/3/1 68/3/1
f 71/3/1 69/3/1 70/3/1
f 74/3/1 73/3/1 72/3/1
f 75/3/1 73/3/1 74/3/1
f 78/3/1 77/3/1 76/3/1
f 79/3/1 77/3/1 78/3/1
f 82/3/1 81/3/1 80/3/1
f 83/3/1 81/3/1 82/3/1
f 84/3/2 85/3/2 86/3/2
f 86/3/2 85/3/2 87/3/2
f 88/3/2 89/3/2 90/3/2
f 90/3/2 89/3/2 91/3/2
f 92/3/2 93/3/2 94/3/2
f 94/3/2 93/3/2 95/3/2
f 96/3/2 97/3/2 98/3/2
f 98/3/2 97/3/2 99/3/2
f 100/3/2 101/3/2 102/3/2
f 102/3/2 101/3/2 103/3/2
f 104/2/2 105/2/2 106/2/2
f 106/2/2 105/2/2 107/2/2
f 106/3/2 107/3/2 108/3/2
f 108/3/2 107/3/2 109/3/2
f 110/3/2 111/3/2 112/3/2
f 112/3/2 111/3/2 113/3/2
f 114/3/2 115/3/2 116/3/2
f 116/3/2 115/3/2 117/3/2
f 118/3/2 119/3/2 120/3/2
f 120/3/2 119/3/2 121/3/2
f 122/3/2 123/3/2 124/3/2
f 124/3/2 123/3/2 125/3/2
f 126/3/2 127/3/2 128/3/2
f 128/3/2 127/3/2 129/3/2
f 130/2/2 131/2/2 132/2/2
f 132/2/2 131/2/2 133/2/2
f 132/3/2 133/3/2 134/3/2
f 134/3/2 133/3/2 135/3/2
f 132/3/2 134/3/2 136/3/2
f 134/1/2 135/1/2 136/1/2
f 135/3/2 133/3/2 137/3/2
f 136/1/2 135/1/2 137/1/2
f 137/3/2 133/3/2 138/3/2
f 138/3/2 133/3/2 139/3/2
f 136/3/2 137/3/2 140/3/2
f 137/3/2 138/3/2 140/3/2
f 140/3/2 138/3/2 141/3/2
f 130/2/2 132/2/2 142/2/2
f 132/3/2 136/3/2 142/3/2
f 136/3/2 140/3/2 142/3/2
f 142/3/2 140/3/2 143/3/2
f 130/2/2 142/2/2 144/2/2
f 142/1/2 143/1/2 144/1/2
f 143/3/2 140/3/2 145/3/2
f 144/1/2 143/1/2 145/1/2
f 144/3/2 145/3/2 146/3/2
f 145/3/2 140/3/2 147/3/2
f 146/3/2 145/3/2 147/3/2
f 144/3/2 146/3/2 148/3/2
f 146/1/2 147/1/2 148/1/2
f 148/1/2 147/1/2 149/1/2
f 130/2/2 144/2/2 150/2/2
f 144/3/2 148/3/2 150/3/2
f 148/3/2 149/3/2 150/3/2
f 150/3/2 149/3/2 151/3/2
f 130/2/2 150/2/2 152/2/2
f 150/1/2 151/1/2 152/1/2
f 151/3/2 149/3/2 153/3/2
f 152/1/2 151/1/2 153/1/2
f 152/3/2 153/3/2 154/3/2
f 153/3/2 149/3/2 154/3/2
f 154/3/2 149/3/2 155/3/2
f 152/3/2 154/3/2 156/3/2
f 154/1/2 155/1/2 156/1/2
f 155/3/2 149/3/2 157/3/2
f 156/1/2 155/1/2 157/1/2
f 130/2/2 152/2/2 158/2/2
f 152/3/2 156/3/2 158/3/2
f 156/3/2 157/3/2 158/3/2
f 157/3/2 149/3/2 159/3/2
f 158/3/2 157/3/2 159/3/2
f 130/2/2 158/2/2 160/2/2
f 158/1/2 159/1/2 160/1/2
f 159/3/2 149/3/2 161/3/2
f 160/1/2 159/1/2 161/1/2
f 130/2/2 160/2/2 162/2/2
f 160/3/2 161/3/2 163/3/2
f 162/2/2 160/2/2 163/2/2
f 161/3/2 149/3/2 164/3/2
f 163/3/2 161/3/2 164/3/2
f 164/3/2 149/3/2 165/3/2
f 162/3/2 163/3/2 166/3/2
f 163/3/2 164/3/2 166/3/2
f 164/1/2 165/1/2 166/1/2
f 166/1/2 165/1/2 167/1/2
f 162/3/2 166/3/2 168/3/2
f 166/3/2 167/3/2 168/3/2
f 168/3/2 167/3/2 169/3/2
f 162/3/2 168/3/2 170/3/2
f 168/1/2 169/1/2 170/1/2
f 170/1/2 169/1/2 171/1/2
f 162/3/2 170/3/2 172/3/2
f 170/3/2 171/3/2 172/3/2
f 172/3/2 171/3/2 173/3/2
f 184/3/3 175/3/3 174/3/3
f 185/3/3 175/3/3 184/3/3
f 186/3/3 177/3/3 176/3/3
f 187/3/3 177/3/3 186/3/3
f 188/3/3 179/3/3 178/3/3
f 189/3/3 179/3/3 188/3/3
f 190/3/3 181/3/3 180/3/3
f 191/3/3 181/3/3 190/3/3
f 192/3/3 183/3/3 182/3/3
f 193/3/3 183/3/3 192/3/3
f 194/3/3 184/3/3 174/3/3
f 195/3/3 175/3/3 185/3/3
f 196/3/3 186/3/3 176/3/3
f 197/3/3 177/3/3 187/3/3
f 198/3/3 188/3/3 178/3/3
f 199/3/3 179/3/3 189/3/3
f 200/3/3 190/3/3 180/3/3
f 201/3/3 181/3/3 191/3/3
f 202/3/3 192/3/3 182/3/3
f 203/3/3 183/3/3 193/3/3
f 204/3/3 194/3/3 174/3/3
f 204/3/3 195/3/3 194/3/3
f 205/3/3 175/3/3 195/3/3
f 205/3/3 195/3/3 204/3/3
f 206/3/3 196/3/3 176/3/3
f 206/3/3 197/3/3 196/3/3
f 207/3/3 177/3/3 197/3/3
f 207/3/3 197/3/3 206/3/3
f 208/3/3 198/3/3 178/3/3
f 208/3/3 199/3/3 198/3/3
f 209/3/3 179/3/3 199/3/3
f 209/3/3 199/3/3 208/3/3
f 210/3/3 200/3/3 180/3/3
f 210/3/3 201/3/3 200/3/3
f 211/3/3 181/3/3 201/3/3
f 211/3/3 201/3/3 210/3/3
f 212/3/3 203/3/3 202/3/3
f 212/3/3 202/3/3 182/3/3
f 213/3/3 183/3/3 203/3/3
f 213/3/3 203/3/3 212/3/3
f 217/2/3 215/2/3 214/2/3
f 218/2/3 215/2/3 217/2/3
f 219/2/3 215/2/3 218/2/3
f 220/2/3 215/2/3 219/2/3
f 221/2/3 215/2/3 220/2/3
f 222/2/3 215/2/3 221/2/3
f 223/2/3 215/2/3 222/2/3
f 224/2/3 215/2/3 223/2/3
f 225/2/3 215/2/3 224/2/3
f 226/2/3 215/2/3 225/2/3
f 227/3/3 216/3/3 215/3/3
f 227/2/3 215/2/3 226/2/3
f 228/3/3 216/3/3 227/3/3
f 239/3/3 216/3/3 228/3/3
f 239/2/3 228/2/3 227/2/3
f 239/2/3 227/2/3 226/2/3
f 240/3/3 216/3/3 239/3/3
f 241/2/3 230/2/3 229/2/3
f 242/2/3 230/2/3 241/2/3
f 243/2/3 232/2/3 231/2/3
f 244/2/3 232/2/3 243/2/3
f 245/2/3 234/2/3 233/2/3
f 246/2/3 234/2/3 245/2/3
f 247/2/3 236/2/3 235/2/3
f 248/2/3 236/2/3 247/2/3
f 249/2/3 238/2/3 237/2/3
f 250/2/3 238/2/3 249/2/3
f 251/2/3 239/2/3 226/2/3
f 251/2/3 240/2/3 239/2/3
f 252/3/3 216/3/3 240/3/3
f 252/2/3 240/2/3 251/2/3
f 254/2/3 219/2/3 218/2/3
f 255/2/3 219/2/3 254/2/3
f 256/2/3 221/2/3 220/2/3
f 257/2/3 221/2/3 256/2/3
f 258/2/3 223/2/3 222/2/3
f 259/2/3 223/2/3 258/2/3
f 260/2/3 225/2/3 224/2/3
f 261/2/3 225/2/3 260/2/3
f 262/2/3 251/2/3 226/2/3
f 263/2/3 251/2/3 262/2/3
f 264/3/3 252/3/3 251/3/3
f 264/2/3 251/2/3 263/2/3
f 265/2/3 263/2/3 262/2/3
f 265/2/3 255/2/3 254/2/3
f 265/2/3 259/2/3 258/2/3
f 265/2/3 262/2/3 261/2/3
f 265/2/3 257/2/3 256/2/3
f 265/2/3 260/2/3 259/2/3
f 265/2/3 261/2/3 260/2/3
f 265/2/3 258/2/3 257/2/3
f 265/2/3 254/2/3 253/2/3
f 265/2/3 256/2/3 255/2/3
f 266/3/3 264/3/3 263/3/3
f 266/2/3 263/2/3 265/2/3
f 267/3/3 216/3/3 252/3/3
f 267/3/3 264/3/3 266/3/3
f 267/3/3 252/3/3 264/3/3
f 270/3/3 269/3/3 268/3/3
f 271/3/3 269/3/3 270/3/3
f 272/3/4 273/3/4 274/3/4
f 274/3/4 273/3/4 275/3/4
f 276/3/4 277/3/4 281/3/4
f 277/1/4 278/1/4 281/1/4
f 278/3/4 279/3/4 282/3/4
f 281/1/4 278/1/4 282/1/4
f 282/3/4 279/3/4 283/3/4
f 283/3/4 279/3/4 284/3/4
f 284/3/4 279/3/4 285/3/4
f 285/3/4 279/3/4 286/3/4
f 286/3/4 279/3/4 287/3/4
f 287/3/4 279/3/4 288/3/4
f 284/3/4 285/3/4 289/3/4
f 285/1/4 286/1/4 289/1/4
f 286/3/4 287/3/4 290/3/4
f 289/1/4 286/1/4 290/1/4
f 287/1/4 288/1/4 291/1/4
f 290/3/4 287/3/4 291/3/4
f 288/3/4 279/3/4 292/3/4
f 291/1/4 288/1/4 292/1/4
f 276/3/4 281/3/4 293/3/4
f 281/3/4 282/3/4 293/3/4
f 282/3/4 283/3/4 293/3/4
f 293/3/4 283/3/4 294/3/4
f 291/3/4 292/3/4 295/3/4
f 284/3/4 289/3/4 295/3/4
f 290/3/4 291/3/4 295/3/4
f 289/3/4 290/3/4 295/3/4
f 295/3/4 292/3/4 296/3/4
f 279/1/4 280/1/4 297/1/4
f 296/3/4 292/3/4 297/3/4
f 292/3/4 279/3/4 297/3/4
f 297/1/4 280/1/4 298/1/4
f 293/1/4 294/1/4 299/1/4
f 294/3/4 283/3/4 300/3/4
f 299/1/4 294/1/4 300/1/4
f 300/3/4 283/3/4 301/3/4
f 301/3/4 283/3/4 302/3/4
f 283/1/4 284/1/4 303/1/4
f 302/3/4 283/3/4 303/3/4
f 284/3/4 295/3/4 304/3/4
f 303/1/4 284/1/4 304/1/4
f 295/1/4 296/1/4 305/1/4
f 304/3/4 295/3/4 305/3/4
f 296/3/4 297/3/4 306/3/4
f 305/1/4 296/1/4 306/1/4
f 297/3/4 298/3/4 306/3/4
f 306/3/4 298/3/4 307/3/4
f 307/3/4 298/3/4 308/3/4
f 308/3/4 298/3/4 309/3/4
f 309/3/4 298/3/4 310/3/4
f 300/3/4 301/3/4 311/3/4
f 299/3/4 300/3/4 311/3/4
f 301/1/4 302/1/4 312/1/4
f 311/3/4 301/3/4 312/3/4
f 303/3/4 304/3/4 313/3/4
f 312/1/4 302/1/4 313/1/4
f 302/3/4 303/3/4 313/3/4
f 304/3/4 305/3/4 313/3/4
f 305/3/4 306/3/4 313/3/4
f 306/3/4 307/3/4 313/3/4
f 307/1/4 308/1/4 314/1/4
f 313/3/4 307/3/4 314/3/4
f 308/3/4 309/3/4 315/3/4
f 314/1/4 308/1/4 315/1/4
f 309/1/4 310/1/4 316/1/4
f 315/3/4 309/3/4 316/3/4
f 310/3/4 298/3/4 317/3/4
f 316/1/4 310/1/4 317/1/4
f 317/3/4 298/3/4 318/3/4
f 319/1/4 320/1/4 321/1/4
f 321/1/4 320/1/4 322/1/4
f 321/3/4 322/3/4 323/3/4
f 323/3/4 322/3/4 324/3/4
f 325/2/4 326/2/4 328/2/4
f 326/3/4 327/3/4 329/3/4
f 328/2/4 326/2/4 329/2/4
f 329/3/4 327/3/4 330/3/4
f 330/3/4 327/3/4 333/3/4
f 331/2/4 332/2/4 334/2/4
f 332/3/4 333/3/4 335/3/4
f 334/2/4 332/2/4 335/2/4
f 333/3/4 327/3/4 336/3/4
f 335/3/4 333/3/4 336/3/4
f 337/2/4 338/2/4 340/2/4
f 338/3/4 339/3/4 341/3/4
f 340/2/4 338/2/4 341/2/4
f 341/3/4 339/3/4 342/3/4
f 346/3/5 344/3/5 343/3/5
f 347/3/5 344/3/5 346/3/5
f 349/2/5 346/2/5 345/2/5
f 349/3/5 347/3/5 346/3/5
f 350/2/5 348/2/5 347/2/5
f 350/3/5 347/3/5 349/3/5
f 351/2/5 349/2/5 345/2/5
f 351/2/5 350/2/5 349/2/5
f 352/2/5 350/2/5 351/2/5
f 353/2/5 350/2/5 352/2/5
f 354/2/5 348/2/5 350/2/5
f 354/2/5 350/2/5 353/2/5
f 355/2/5 353/2/5 352/2/5
f 356/2/5 353/2/5 355/2/5
f 359/3/5 358/3/5 357/3/5
f 360/3/5 358/3/5 359/3/5
f 363/3/5 362/3/5 361/3/5
f 364/3/5 362/3/5 363/3/5
f 367/3/5 366/3/5 365/3/5
f 368/3/5 366/3/5 367/3/5
f 371/3/5 370/3/5 369/3/5
f 372/3/5 370/3/5 371/3/5
f 375/3/5 374/3/5 373/3/5
f 376/3/5 374/3/5 375/3/5
f 379/3/5 378/3/5 377/3/5
f 380/3/5 378/3/5 379/3/5
f 383/3/5 382/3/5 381/3/5
f 384/3/5 382/3/5 383/3/5
f 387/3/5 386/3/5 385/3/5
f 388/3/5 386/3/5 387/3/5
f 391/3/5 390/3/5 389/3/5
f 392/3/5 390/3/5 391/3/5
f 395/3/5 394/3/5 393/3/5
f 396/3/5 394/3/5 395/3/5
f 397/1/5 396/1/5 395/1/5
f 398/1/5 396/1/5 397/1/5
f 399/3/6 400/3/6 401/3/6
f 401/3/6 400/3/6 402/3/6
f 403/3/6 404/3/6 405/3/6
f 405/3/6 404/3/6 406/3/6
f 407/1/6 408/1/6 410/1/6
f 408/3/6 409/3/6 411/3/6
f 410/1/6 408/1/6 411/1/6
f 410/3/6 411/3/6 412/3/6
f 411/3/6 409/3/6 413/3/6
f 412/3/6 411/3/6 413/3/6
f 414/3/6 415/3/6 416/3/6
f 416/3/6 415/3/6 417/3/6
f 418/1/6 419/1/6 422/1/6
f 419/3/6 420/3/6 423/3/6
f 422/1/6 419/1/6 423/1/6
f 420/3/6 421/3/6 423/3/6
f 423/3/6 421/3/6 424/3/6
f 425/3/6 426/3/6 427/3/6
f 427/3/6 426/3/6 428/3/6
f 429/3/6 430/3/6 431/3/6
f 431/3/6 430/3/6 432/3/6
f 433/3/6 434/3/6 435/3/6
f 435/3/6 434/3/6 436/3/6
f 437/3/6 438/3/6 439/3/6
f 439/3/6 438/3/6 440/3/6
f 441/3/6 442/3/6 443/3/6
f 443/3/6 442/3/6 444/3/6
f 445/3/6 446/3/6 447/3/6
f 447/3/6 446/3/6 448/3/6
f 449/3/6 450/3/6 451/3/6
f 451/3/6 450/3/6 452/3/6
f 453/3/6 454/3/6 455/3/6
f 455/3/6 454/3/6 456/3/6
f 457/3/6 458/3/6 459/3/6
f 459/3/6 458/3/6 460/3/6
f 461/3/6 462/3/6 463/3/6
f 463/3/6 462/3/6 464/3/6
f 463/1/6 464/1/6 465/1/6
f 464/3/6 462/3/6 466/3/6
f 465/1/6 464/1/6 466/1/6
f 466/3/6 462/3/6 467/3/6
